<?xml version="1.0" encoding="utf-8"?>
<!-- Generator: Adobe Illustrator 19.0.0, SVG Export Plug-In . SVG Version: 6.00 Build 0)  -->
<svg version="1.1" id="Layer_1" xmlns="http://www.w3.org/2000/svg" xmlns:xlink="http://www.w3.org/1999/xlink" x="0px" y="0px"
	 viewBox="-377 216.5 267.5 337.5" style="enable-background:new -377 216.5 267.5 337.5;" xml:space="preserve">
<style type="text/css">
	.st0{fill:#A97C50;}
	.st1{fill:#421A19;}
	.st2{fill:#CE4E9C;stroke:#3C2415;stroke-miterlimit:10;}
	.st3{fill:none;stroke:#049246;stroke-width:0.25;stroke-miterlimit:10;}
	.st4{fill:none;stroke:#049246;stroke-width:0.25;stroke-miterlimit:10;stroke-dasharray:2,2;}
	.st5{fill:none;stroke:#F7941E;stroke-width:0.25;stroke-miterlimit:10;}
	.st6{fill:none;stroke:#F7941E;stroke-width:0.25;stroke-miterlimit:10;stroke-dasharray:2,2;}
	.st7{fill:none;stroke:#EE3230;stroke-width:0.25;stroke-miterlimit:10;}
	.st8{fill:none;stroke:#EE3230;stroke-width:0.25;stroke-miterlimit:10;stroke-dasharray:2,2;}
	.st9{fill:none;stroke:#662D91;stroke-width:0.25;stroke-miterlimit:10;}
	.st10{fill:none;stroke:#662D91;stroke-width:0.25;stroke-miterlimit:10;stroke-dasharray:2,2;}
	.st11{fill:#009444;stroke:#3C2415;stroke-miterlimit:10;}
	.st12{fill:#F7941E;stroke:#3C2415;stroke-miterlimit:10;}
	.st13{fill:none;}
	.st14{font-family:'ArialMT';}
	.st15{font-size:10.7804px;}
	.st16{display:none;fill:none;}
	.st17{display:none;fill:none;stroke:#421A19;stroke-miterlimit:10;}
</style>
<g>
	<rect x="-213.7" y="297.9" class="st0" width="9.7" height="9.7"/>
	<path class="st1" d="M-204.5,298.4v8.7h-8.7v-8.7H-204.5 M-203.5,297.4h-10.7v10.7h10.7V297.4L-203.5,297.4z"/>
</g>
<g>
	<rect x="-224.4" y="297.9" class="st0" width="9.7" height="9.7"/>
	<path class="st1" d="M-215.2,298.4v8.7h-8.7v-8.7H-215.2 M-214.2,297.4h-10.7v10.7h10.7V297.4L-214.2,297.4z"/>
</g>
<g>
	<rect x="-235.1" y="297.9" class="st0" width="9.7" height="9.7"/>
	<path class="st1" d="M-225.8,298.4v8.7h-8.7v-8.7H-225.8 M-224.8,297.4h-10.7v10.7h10.7V297.4L-224.8,297.4z"/>
</g>
<g>
	<rect x="-245.8" y="297.9" class="st0" width="9.7" height="9.7"/>
	<path class="st1" d="M-236.5,298.4v8.7h-8.7v-8.7H-236.5 M-235.5,297.4h-10.7v10.7h10.7V297.4L-235.5,297.4z"/>
</g>
<g>
	<rect x="-213.7" y="308.6" class="st0" width="9.7" height="9.7"/>
	<path class="st1" d="M-204.5,309.1v8.7h-8.7v-8.7H-204.5 M-203.5,308.1h-10.7v10.7h10.7V308.1L-203.5,308.1z"/>
</g>
<g>
	<rect x="-224.4" y="308.6" class="st0" width="9.7" height="9.7"/>
	<path class="st1" d="M-215.2,309.1v8.7h-8.7v-8.7H-215.2 M-214.2,308.1h-10.7v10.7h10.7V308.1L-214.2,308.1z"/>
</g>
<g>
	<rect x="-235.1" y="308.6" class="st0" width="9.7" height="9.7"/>
	<path class="st1" d="M-225.8,309.1v8.7h-8.7v-8.7H-225.8 M-224.8,308.1h-10.7v10.7h10.7V308.1L-224.8,308.1z"/>
</g>
<g>
	<rect x="-245.8" y="308.6" class="st0" width="9.7" height="9.7"/>
	<path class="st1" d="M-236.5,309.1v8.7h-8.7v-8.7H-236.5 M-235.5,308.1h-10.7v10.7h10.7V308.1L-235.5,308.1z"/>
</g>
<g>
	<rect x="-213.7" y="319.2" class="st0" width="9.7" height="9.7"/>
	<path class="st1" d="M-204.5,319.7v8.7h-8.7v-8.7H-204.5 M-203.5,318.7h-10.7v10.7h10.7V318.7L-203.5,318.7z"/>
</g>
<g>
	<rect x="-224.4" y="319.2" class="st0" width="9.7" height="9.7"/>
	<path class="st1" d="M-215.2,319.7v8.7h-8.7v-8.7H-215.2 M-214.2,318.7h-10.7v10.7h10.7V318.7L-214.2,318.7z"/>
</g>
<g>
	<rect x="-235.1" y="319.2" class="st0" width="9.7" height="9.7"/>
	<path class="st1" d="M-225.8,319.7v8.7h-8.7v-8.7H-225.8 M-224.8,318.7h-10.7v10.7h10.7V318.7L-224.8,318.7z"/>
</g>
<g>
	<rect x="-245.8" y="319.2" class="st0" width="9.7" height="9.7"/>
	<path class="st1" d="M-236.5,319.7v8.7h-8.7v-8.7H-236.5 M-235.5,318.7h-10.7v10.7h10.7V318.7L-235.5,318.7z"/>
</g>
<g>
	<rect x="-213.7" y="329.9" class="st0" width="9.7" height="9.7"/>
	<path class="st1" d="M-204.5,330.4v8.7h-8.7v-8.7H-204.5 M-203.5,329.4h-10.7v10.7h10.7V329.4L-203.5,329.4z"/>
</g>
<g>
	<rect x="-224.4" y="329.9" class="st0" width="9.7" height="9.7"/>
	<path class="st1" d="M-215.2,330.4v8.7h-8.7v-8.7H-215.2 M-214.2,329.4h-10.7v10.7h10.7V329.4L-214.2,329.4z"/>
</g>
<g>
	<rect x="-235.1" y="329.9" class="st0" width="9.7" height="9.7"/>
	<path class="st1" d="M-225.8,330.4v8.7h-8.7v-8.7H-225.8 M-224.8,329.4h-10.7v10.7h10.7V329.4L-224.8,329.4z"/>
</g>
<g>
	<rect x="-229.1" y="340.5" class="st0" width="9.7" height="9.7"/>
	<path class="st1" d="M-219.9,341v8.7h-8.7V341H-219.9 M-218.9,340h-10.7v10.7h10.7V340L-218.9,340z"/>
</g>
<g>
	<rect x="-239.8" y="340.5" class="st0" width="9.7" height="9.7"/>
	<path class="st1" d="M-230.6,341v8.7h-8.7V341H-230.6 M-229.6,340h-10.7v10.7h10.7V340L-229.6,340z"/>
</g>
<g>
	<rect x="-229.1" y="351.1" class="st0" width="9.7" height="9.7"/>
	<path class="st1" d="M-219.9,351.6v8.7h-8.7v-8.7H-219.9 M-218.9,350.6h-10.7v10.7h10.7V350.6L-218.9,350.6z"/>
</g>
<g>
	<rect x="-239.8" y="351.1" class="st0" width="9.7" height="9.7"/>
	<path class="st1" d="M-230.6,351.6v8.7h-8.7v-8.7H-230.6 M-229.6,350.6h-10.7v10.7h10.7V350.6L-229.6,350.6z"/>
</g>
<g>
	<rect x="-229.1" y="361.8" class="st0" width="9.7" height="9.7"/>
	<path class="st1" d="M-219.9,362.3v8.7h-8.7v-8.7H-219.9 M-218.9,361.3h-10.7V372h10.7V361.3L-218.9,361.3z"/>
</g>
<g>
	<rect x="-239.8" y="361.8" class="st0" width="9.7" height="9.7"/>
	<path class="st1" d="M-230.6,362.3v8.7h-8.7v-8.7H-230.6 M-229.6,361.3h-10.7V372h10.7V361.3L-229.6,361.3z"/>
</g>
<g>
	<rect x="-229.1" y="372.4" class="st0" width="9.7" height="9.7"/>
	<path class="st1" d="M-219.9,372.9v8.7h-8.7v-8.7H-219.9 M-218.9,371.9h-10.7v10.7h10.7V371.9L-218.9,371.9z"/>
</g>
<g>
	<rect x="-239.8" y="372.4" class="st0" width="9.7" height="9.7"/>
	<path class="st1" d="M-230.6,372.9v8.7h-8.7v-8.7H-230.6 M-229.6,371.9h-10.7v10.7h10.7V371.9L-229.6,371.9z"/>
</g>
<g>
	<rect x="-229.1" y="383" class="st0" width="9.7" height="9.7"/>
	<path class="st1" d="M-219.9,383.5v8.7h-8.7v-8.7H-219.9 M-218.9,382.5h-10.7v10.7h10.7V382.5L-218.9,382.5z"/>
</g>
<g>
	<rect x="-239.8" y="383" class="st0" width="9.7" height="9.7"/>
	<path class="st1" d="M-230.6,383.5v8.7h-8.7v-8.7H-230.6 M-229.6,382.5h-10.7v10.7h10.7V382.5L-229.6,382.5z"/>
</g>
<g>
	<rect x="-229.1" y="393.7" class="st0" width="9.7" height="9.7"/>
	<path class="st1" d="M-219.9,394.2v8.7h-8.7v-8.7H-219.9 M-218.9,393.2h-10.7v10.7h10.7V393.2L-218.9,393.2z"/>
</g>
<g>
	<rect x="-239.8" y="393.7" class="st0" width="9.7" height="9.7"/>
	<path class="st1" d="M-230.6,394.2v8.7h-8.7v-8.7H-230.6 M-229.6,393.2h-10.7v10.7h10.7V393.2L-229.6,393.2z"/>
</g>
<g>
	<rect x="-229.1" y="404.3" class="st0" width="9.7" height="9.7"/>
	<path class="st1" d="M-219.9,404.8v8.7h-8.7v-8.7H-219.9 M-218.9,403.8h-10.7v10.7h10.7V403.8L-218.9,403.8z"/>
</g>
<g>
	<rect x="-218.7" y="383" class="st0" width="9.7" height="9.7"/>
	<path class="st1" d="M-209.5,383.5v8.7h-8.7v-8.7H-209.5 M-208.5,382.5h-10.7v10.7h10.7V382.5L-208.5,382.5z"/>
</g>
<g>
	<rect x="-218.7" y="393.7" class="st0" width="9.7" height="9.7"/>
	<path class="st1" d="M-209.5,394.2v8.7h-8.7v-8.7H-209.5 M-208.5,393.2h-10.7v10.7h10.7V393.2L-208.5,393.2z"/>
</g>
<g>
	<rect x="-239.8" y="404.3" class="st0" width="9.7" height="9.7"/>
	<path class="st1" d="M-230.6,404.8v8.7h-8.7v-8.7H-230.6 M-229.6,403.8h-10.7v10.7h10.7V403.8L-229.6,403.8z"/>
</g>
<g>
	<rect x="-250.5" y="383" class="st0" width="9.7" height="9.7"/>
	<path class="st1" d="M-241.3,383.5v8.7h-8.7v-8.7H-241.3 M-240.3,382.5H-251v10.7h10.7V382.5L-240.3,382.5z"/>
</g>
<g>
	<rect x="-250.5" y="393.7" class="st0" width="9.7" height="9.7"/>
	<path class="st1" d="M-241.3,394.2v8.7h-8.7v-8.7H-241.3 M-240.3,393.2H-251v10.7h10.7V393.2L-240.3,393.2z"/>
</g>
<g>
	<rect x="-229.1" y="415" class="st0" width="9.7" height="9.7"/>
	<path class="st1" d="M-219.9,415.5v8.7h-8.7v-8.7H-219.9 M-218.9,414.5h-10.7v10.7h10.7V414.5L-218.9,414.5z"/>
</g>
<g>
	<rect x="-239.8" y="415" class="st0" width="9.7" height="9.7"/>
	<path class="st1" d="M-230.6,415.5v8.7h-8.7v-8.7H-230.6 M-229.6,414.5h-10.7v10.7h10.7V414.5L-229.6,414.5z"/>
</g>
<g>
	<rect x="-229.1" y="425.6" class="st0" width="9.7" height="9.7"/>
	<path class="st1" d="M-219.9,426.1v8.7h-8.7v-8.7H-219.9 M-218.9,425.1h-10.7v10.7h10.7V425.1L-218.9,425.1z"/>
</g>
<g>
	<rect x="-239.8" y="425.6" class="st0" width="9.7" height="9.7"/>
	<path class="st1" d="M-230.6,426.1v8.7h-8.7v-8.7H-230.6 M-229.6,425.1h-10.7v10.7h10.7V425.1L-229.6,425.1z"/>
</g>
<g>
	<rect x="-229.1" y="436.3" class="st0" width="9.7" height="9.7"/>
	<path class="st1" d="M-219.9,436.8v8.7h-8.7v-8.7H-219.9 M-218.9,435.8h-10.7v10.7h10.7V435.8L-218.9,435.8z"/>
</g>
<g>
	<rect x="-239.8" y="436.3" class="st0" width="9.7" height="9.7"/>
	<path class="st1" d="M-230.6,436.8v8.7h-8.7v-8.7H-230.6 M-229.6,435.8h-10.7v10.7h10.7V435.8L-229.6,435.8z"/>
</g>
<g>
	<rect x="-229.1" y="446.9" class="st0" width="9.7" height="9.7"/>
	<path class="st1" d="M-219.9,447.4v8.7h-8.7v-8.7H-219.9 M-218.9,446.4h-10.7v10.7h10.7V446.4L-218.9,446.4z"/>
</g>
<g>
	<rect x="-239.8" y="446.9" class="st0" width="9.7" height="9.7"/>
	<path class="st1" d="M-230.6,447.4v8.7h-8.7v-8.7H-230.6 M-229.6,446.4h-10.7v10.7h10.7V446.4L-229.6,446.4z"/>
</g>
<g>
	<rect x="-229.1" y="457.6" class="st0" width="9.7" height="9.7"/>
	<path class="st1" d="M-219.9,458.1v8.7h-8.7v-8.7H-219.9 M-218.9,457.1h-10.7v10.7h10.7V457.1L-218.9,457.1z"/>
</g>
<g>
	<rect x="-239.8" y="457.6" class="st0" width="9.7" height="9.7"/>
	<path class="st1" d="M-230.6,458.1v8.7h-8.7v-8.7H-230.6 M-229.6,457.1h-10.7v10.7h10.7V457.1L-229.6,457.1z"/>
</g>
<g>
	<rect x="-229.1" y="468.2" class="st0" width="9.7" height="9.7"/>
	<path class="st1" d="M-219.9,468.7v8.7h-8.7v-8.7H-219.9 M-218.9,467.7h-10.7v10.7h10.7V467.7L-218.9,467.7z"/>
</g>
<g>
	<rect x="-239.8" y="468.2" class="st0" width="9.7" height="9.7"/>
	<path class="st1" d="M-230.6,468.7v8.7h-8.7v-8.7H-230.6 M-229.6,467.7h-10.7v10.7h10.7V467.7L-229.6,467.7z"/>
</g>
<g>
	<rect x="-229.1" y="478.9" class="st0" width="9.7" height="9.7"/>
	<path class="st1" d="M-219.9,479.4v8.7h-8.7v-8.7H-219.9 M-218.9,478.4h-10.7v10.7h10.7V478.4L-218.9,478.4z"/>
</g>
<g>
	<rect x="-239.8" y="478.9" class="st0" width="9.7" height="9.7"/>
	<path class="st1" d="M-230.6,479.4v8.7h-8.7v-8.7H-230.6 M-229.6,478.4h-10.7v10.7h10.7V478.4L-229.6,478.4z"/>
</g>
<g>
	<rect x="-229.1" y="489.5" class="st0" width="9.7" height="9.7"/>
	<path class="st1" d="M-219.9,490v8.7h-8.7V490H-219.9 M-218.9,489h-10.7v10.7h10.7V489L-218.9,489z"/>
</g>
<g>
	<rect x="-239.8" y="489.5" class="st0" width="9.7" height="9.7"/>
	<path class="st1" d="M-230.6,490v8.7h-8.7V490H-230.6 M-229.6,489h-10.7v10.7h10.7V489L-229.6,489z"/>
</g>
<g>
	<rect x="-229.1" y="500.2" class="st0" width="9.7" height="9.7"/>
	<path class="st1" d="M-219.9,500.7v8.7h-8.7v-8.7H-219.9 M-218.9,499.7h-10.7v10.7h10.7V499.7L-218.9,499.7z"/>
</g>
<g>
	<rect x="-239.8" y="500.2" class="st0" width="9.7" height="9.7"/>
	<path class="st1" d="M-230.6,500.7v8.7h-8.7v-8.7H-230.6 M-229.6,499.7h-10.7v10.7h10.7V499.7L-229.6,499.7z"/>
</g>
<g>
	<rect x="-229.1" y="510.8" class="st0" width="9.7" height="9.7"/>
	<path class="st1" d="M-219.9,511.3v8.7h-8.7v-8.7H-219.9 M-218.9,510.3h-10.7V521h10.7V510.3L-218.9,510.3z"/>
</g>
<g>
	<rect x="-239.8" y="510.8" class="st0" width="9.7" height="9.7"/>
	<path class="st1" d="M-230.6,511.3v8.7h-8.7v-8.7H-230.6 M-229.6,510.3h-10.7V521h10.7V510.3L-229.6,510.3z"/>
</g>
<g>
	<rect x="-229.1" y="521.5" class="st0" width="9.7" height="9.7"/>
	<path class="st1" d="M-219.9,522v8.7h-8.7V522H-219.9 M-218.9,521h-10.7v10.7h10.7V521L-218.9,521z"/>
</g>
<g>
	<rect x="-239.8" y="521.5" class="st0" width="9.7" height="9.7"/>
	<path class="st1" d="M-230.6,522v8.7h-8.7V522H-230.6 M-229.6,521h-10.7v10.7h10.7V521L-229.6,521z"/>
</g>
<g>
	<rect x="-250.6" y="510.8" class="st0" width="9.7" height="9.7"/>
	<path class="st1" d="M-241.4,511.3v8.7h-8.7v-8.7H-241.4 M-240.4,510.3h-10.7V521h10.7V510.3L-240.4,510.3z"/>
</g>
<g>
	<rect x="-261.3" y="510.8" class="st0" width="9.7" height="9.7"/>
	<path class="st1" d="M-252.1,511.3v8.7h-8.7v-8.7H-252.1 M-251.1,510.3h-10.7V521h10.7L-251.1,510.3L-251.1,510.3z"/>
</g>
<g>
	<rect x="-250.6" y="521.5" class="st0" width="9.7" height="9.7"/>
	<path class="st1" d="M-241.4,522v8.7h-8.7V522H-241.4 M-240.4,521h-10.7v10.7h10.7V521L-240.4,521z"/>
</g>
<g>
	<rect x="-261.3" y="521.5" class="st0" width="9.7" height="9.7"/>
	<path class="st1" d="M-252.1,522v8.7h-8.7V522H-252.1 M-251.1,521h-10.7v10.7h10.7L-251.1,521L-251.1,521z"/>
</g>
<g>
	<rect x="-272.1" y="510.8" class="st0" width="9.7" height="9.7"/>
	<path class="st1" d="M-262.9,511.3v8.7h-8.7v-8.7H-262.9 M-261.9,510.3h-10.7V521h10.7V510.3L-261.9,510.3z"/>
</g>
<g>
	<rect x="-282.8" y="510.8" class="st0" width="9.7" height="9.7"/>
	<path class="st1" d="M-273.6,511.3v8.7h-8.7v-8.7H-273.6 M-272.6,510.3h-10.7V521h10.7V510.3L-272.6,510.3z"/>
</g>
<g>
	<rect x="-272.1" y="521.5" class="st0" width="9.7" height="9.7"/>
	<path class="st1" d="M-262.9,522v8.7h-8.7V522H-262.9 M-261.9,521h-10.7v10.7h10.7V521L-261.9,521z"/>
</g>
<g>
	<rect x="-282.8" y="521.5" class="st0" width="9.7" height="9.7"/>
	<path class="st1" d="M-273.6,522v8.7h-8.7V522H-273.6 M-272.6,521h-10.7v10.7h10.7V521L-272.6,521z"/>
</g>
<g>
	<rect x="-293.5" y="510.8" class="st0" width="9.7" height="9.7"/>
	<path class="st1" d="M-284.3,511.3v8.7h-8.7v-8.7H-284.3 M-283.3,510.3H-294V521h10.7V510.3L-283.3,510.3z"/>
</g>
<g>
	<rect x="-304.2" y="510.8" class="st0" width="9.7" height="9.7"/>
	<path class="st1" d="M-295,511.3v8.7h-8.7v-8.7H-295 M-294,510.3h-10.7V521h10.7V510.3L-294,510.3z"/>
</g>
<g>
	<rect x="-293.5" y="521.5" class="st0" width="9.7" height="9.7"/>
	<path class="st1" d="M-284.3,522v8.7h-8.7V522H-284.3 M-283.3,521H-294v10.7h10.7V521L-283.3,521z"/>
</g>
<g>
	<rect x="-304.2" y="521.5" class="st0" width="9.7" height="9.7"/>
	<path class="st1" d="M-295,522v8.7h-8.7V522H-295 M-294,521h-10.7v10.7h10.7V521L-294,521z"/>
</g>
<g>
	<rect x="-315" y="510.8" class="st0" width="9.7" height="9.7"/>
	<path class="st1" d="M-305.8,511.3v8.7h-8.7v-8.7H-305.8 M-304.8,510.3h-10.7V521h10.7V510.3L-304.8,510.3z"/>
</g>
<g>
	<rect x="-325.7" y="510.8" class="st0" width="9.7" height="9.7"/>
	<path class="st1" d="M-316.5,511.3v8.7h-8.7v-8.7H-316.5 M-315.5,510.3h-10.7V521h10.7V510.3L-315.5,510.3z"/>
</g>
<g>
	<rect x="-315" y="521.5" class="st0" width="9.7" height="9.7"/>
	<path class="st1" d="M-305.8,522v8.7h-8.7V522H-305.8 M-304.8,521h-10.7v10.7h10.7V521L-304.8,521z"/>
</g>
<g>
	<rect x="-325.7" y="521.5" class="st0" width="9.7" height="9.7"/>
	<path class="st1" d="M-316.5,522v8.7h-8.7V522H-316.5 M-315.5,521h-10.7v10.7h10.7V521L-315.5,521z"/>
</g>
<g>
	<rect x="-245.8" y="329.9" class="st0" width="9.7" height="9.7"/>
	<path class="st1" d="M-236.5,330.4v8.7h-8.7v-8.7H-236.5 M-235.5,329.4h-10.7v10.7h10.7V329.4L-235.5,329.4z"/>
</g>
<g>
	<rect x="-256.3" y="297.9" class="st0" width="9.7" height="9.7"/>
	<path class="st1" d="M-247.1,298.4v8.7h-8.7v-8.7H-247.1 M-246.1,297.4h-10.7v10.7h10.7V297.4L-246.1,297.4z"/>
</g>
<g>
	<rect x="-213.7" y="287.6" class="st0" width="9.7" height="9.7"/>
	<path class="st1" d="M-204.5,288.1v8.7h-8.7v-8.7H-204.5 M-203.5,287.1h-10.7v10.7h10.7V287.1L-203.5,287.1z"/>
</g>
<g>
	<rect x="-224.4" y="287.6" class="st0" width="9.7" height="9.7"/>
	<path class="st1" d="M-215.2,288.1v8.7h-8.7v-8.7H-215.2 M-214.2,287.1h-10.7v10.7h10.7V287.1L-214.2,287.1z"/>
</g>
<g>
	<rect x="-235.1" y="287.6" class="st0" width="9.7" height="9.7"/>
	<path class="st1" d="M-225.8,288.1v8.7h-8.7v-8.7H-225.8 M-224.8,287.1h-10.7v10.7h10.7V287.1L-224.8,287.1z"/>
</g>
<g>
	<rect x="-245.8" y="287.6" class="st0" width="9.7" height="9.7"/>
	<path class="st1" d="M-236.5,288.1v8.7h-8.7v-8.7H-236.5 M-235.5,287.1h-10.7v10.7h10.7V287.1L-235.5,287.1z"/>
</g>
<g>
	<rect x="-256.3" y="287.6" class="st0" width="9.7" height="9.7"/>
	<path class="st1" d="M-247.1,288.1v8.7h-8.7v-8.7H-247.1 M-246.1,287.1h-10.7v10.7h10.7V287.1L-246.1,287.1z"/>
</g>
<g>
	<rect x="-256.3" y="308.6" class="st0" width="9.7" height="9.7"/>
	<path class="st1" d="M-247.1,309.1v8.7h-8.7v-8.7H-247.1 M-246.1,308.1h-10.7v10.7h10.7V308.1L-246.1,308.1z"/>
</g>
<g>
	<rect x="-256.3" y="319.2" class="st0" width="9.7" height="9.7"/>
	<path class="st1" d="M-247.1,319.7v8.7h-8.7v-8.7H-247.1 M-246.1,318.7h-10.7v10.7h10.7V318.7L-246.1,318.7z"/>
</g>
<g>
	<rect x="-256.3" y="329.9" class="st0" width="9.7" height="9.7"/>
	<path class="st1" d="M-247.1,330.4v8.7h-8.7v-8.7H-247.1 M-246.1,329.4h-10.7v10.7h10.7V329.4L-246.1,329.4z"/>
</g>
<rect x="-350.3" y="400.6" transform="matrix(2.499976e-03 1 -1 2.499976e-03 67.4513 744.3384)" class="st2" width="21.8" height="10.7"/>
<rect x="-350.3" y="378.7" transform="matrix(2.499976e-03 1 -1 2.499976e-03 45.5432 722.4852)" class="st2" width="21.8" height="10.7"/>
<g>
	
		<rect x="-190.2" y="367.6" transform="matrix(0.8065 0.5912 -0.5912 0.8065 181.9395 182.8046)" class="st3" width="3.8" height="3.5"/>
	
		<rect id="area-20" x="-220.1" y="340.8" transform="matrix(2.399979e-03 -1 1 2.399979e-03 -560.1757 159.6577)" class="st4" width="40.1" height="39.6"/>
	<circle class="st3" cx="-200.1" cy="360.7" r="10.5"/>
	
		<rect x="-213.4" y="367.5" transform="matrix(-0.9044 0.4266 -0.4266 -0.9044 -245.283 793.3598)" class="st3" width="3.8" height="3.5"/>
	
		<rect x="-195.6" y="371.8" transform="matrix(0.5885 0.8085 -0.8085 0.5885 222.2718 310.3022)" class="st3" width="3.8" height="3.5"/>
	
		<rect x="-208.6" y="371.6" transform="matrix(-0.5043 0.8635 -0.8635 -0.5043 11.5341 740.1612)" class="st3" width="3.8" height="3.5"/>
	<polygon class="st3" points="-198.9,372.9 -198.8,376.7 -202.3,376.9 -202.5,373.1 	"/>
	
		<rect x="-215.6" y="356.1" transform="matrix(-0.9987 -5.169423e-02 5.169423e-02 -0.9987 -445.63 704.163)" class="st3" width="3.8" height="3.5"/>
	
		<rect x="-215.5" y="361.6" transform="matrix(-0.9942 0.1075 -0.1075 -0.9942 -386.9139 747.5153)" class="st3" width="3.8" height="3.5"/>
	
		<rect x="-213.3" y="349.9" transform="matrix(-0.8012 -0.5984 0.5984 -0.8012 -591.2595 506.86)" class="st3" width="3.8" height="3.5"/>
	<polygon class="st3" points="-190.8,351.2 -187.3,349.6 -185.9,352.8 -189.3,354.4 	"/>
	
		<rect x="-208" y="345.8" transform="matrix(-0.5807 -0.8141 0.8141 -0.5807 -608.7751 381.5686)" class="st3" width="3.8" height="3.5"/>
	
		<rect x="-195" y="345.9" transform="matrix(0.5127 -0.8586 0.8586 0.5127 -392.6046 3.677)" class="st3" width="3.8" height="3.5"/>
	
		<rect x="-201.1" y="344.5" transform="matrix(-4.269847e-02 -0.9991 0.9991 -4.269847e-02 -553.6017 161.9529)" class="st3" width="3.8" height="3.5"/>
	
		<rect x="-188" y="361.6" transform="matrix(0.9981 6.080906e-02 -6.080906e-02 0.9981 21.7487 11.9864)" class="st3" width="3.8" height="3.5"/>
	
		<rect x="-188.2" y="356.1" transform="matrix(0.9951 -9.870503e-02 9.870503e-02 0.9951 -36.2278 -16.6381)" class="st3" width="3.8" height="3.5"/>
</g>
<g>
	
		<rect x="-253.3" y="367.6" transform="matrix(0.8064 0.5914 -0.5914 0.8064 169.7358 220.1901)" class="st3" width="3.8" height="3.5"/>
	
		<rect id="area-21" x="-283.2" y="340.9" transform="matrix(2.399979e-03 -1 1 2.399979e-03 -623.2282 96.6367)" class="st4" width="40.1" height="39.6"/>
	<circle class="st3" cx="-263.2" cy="360.7" r="10.5"/>
	
		<rect x="-276.4" y="367.5" transform="matrix(-0.9045 0.4264 -0.4264 -0.9045 -365.354 820.2218)" class="st3" width="3.8" height="3.5"/>
	
		<rect x="-258.6" y="371.8" transform="matrix(0.5883 0.8086 -0.8086 0.5883 196.3859 361.4082)" class="st3" width="3.8" height="3.5"/>
	
		<rect x="-271.7" y="371.7" transform="matrix(-0.5043 0.8635 -0.8635 -0.5043 -83.3963 794.7347)" class="st3" width="3.8" height="3.5"/>
	<polygon class="st3" points="-262,372.9 -261.8,376.7 -265.3,376.9 -265.5,373.1 	"/>
	
		<rect x="-278.7" y="356.1" transform="matrix(-0.9987 -5.169423e-02 5.169423e-02 -0.9987 -571.7514 700.9014)" class="st3" width="3.8" height="3.5"/>
	
		<rect x="-278.5" y="361.6" transform="matrix(-0.9942 0.1075 -0.1075 -0.9942 -512.5486 754.2851)" class="st3" width="3.8" height="3.5"/>
	
		<rect x="-276.4" y="349.9" transform="matrix(-0.8012 -0.5984 0.5984 -0.8012 -704.8332 469.0504)" class="st3" width="3.8" height="3.5"/>
	
		<rect x="-253.3" y="350.2" transform="matrix(0.9085 -0.4179 0.4179 0.9085 -170.0885 -72.8454)" class="st3" width="3.8" height="3.5"/>
	
		<rect x="-271.1" y="345.7" transform="matrix(-0.5808 -0.814 0.814 -0.5808 -708.3433 330.1728)" class="st3" width="3.8" height="3.5"/>
	
		<rect x="-258" y="345.9" transform="matrix(0.5123 -0.8588 0.8588 0.5123 -423.4808 -50.3342)" class="st3" width="3.8" height="3.5"/>
	
		<rect x="-264.1" y="344.4" transform="matrix(-4.249955e-02 -0.9991 0.9991 -4.249955e-02 -619.2536 98.9069)" class="st3" width="3.8" height="3.5"/>
	
		<rect x="-251.1" y="361.6" transform="matrix(0.9981 6.080906e-02 -6.080906e-02 0.9981 21.6316 15.8232)" class="st3" width="3.8" height="3.5"/>
	
		<rect x="-251.3" y="356.1" transform="matrix(0.9951 -9.880213e-02 9.880213e-02 0.9951 -36.5742 -22.8873)" class="st3" width="3.8" height="3.5"/>
</g>
<g>
	
		<rect x="-190.3" y="433.7" transform="matrix(0.8066 0.591 -0.591 0.8066 220.9636 195.5601)" class="st3" width="3.8" height="3.5"/>
	
		<rect id="area-9" x="-220.1" y="407" transform="matrix(2.399979e-03 -1 1 2.399979e-03 -626.3979 225.7188)" class="st4" width="40.1" height="39.6"/>
	<path class="st3" d="M-210.6,426.9c0-5.8,4.7-10.5,10.5-10.5s10.5,4.7,10.5,10.5s-4.7,10.5-10.5,10.5S-210.6,432.7-210.6,426.9z"/>
	
		<rect x="-213.4" y="433.6" transform="matrix(-0.9046 0.4263 -0.4263 -0.9046 -217.2514 919.2977)" class="st3" width="3.8" height="3.5"/>
	
		<rect x="-195.5" y="437.9" transform="matrix(0.5887 0.8084 -0.8084 0.5887 275.7473 337.3789)" class="st3" width="3.8" height="3.5"/>
	
		<rect x="-208.6" y="437.8" transform="matrix(-0.5043 0.8635 -0.8635 -0.5043 68.6035 839.7623)" class="st3" width="3.8" height="3.5"/>
	
		<rect x="-202.5" y="439.3" transform="matrix(5.189260e-02 0.9987 -0.9987 5.189260e-02 250.2793 618.4518)" class="st3" width="3.8" height="3.5"/>
	
		<rect x="-215.6" y="422.3" transform="matrix(-0.9987 -5.189260e-02 5.189260e-02 -0.9987 -449.1382 836.4388)" class="st3" width="3.8" height="3.5"/>
	
		<rect x="-215.5" y="427.8" transform="matrix(-0.9943 0.107 -0.107 -0.9943 -380.0194 879.4929)" class="st3" width="3.8" height="3.5"/>
	
		<rect x="-213.3" y="416" transform="matrix(-0.8013 -0.5982 0.5982 -0.8013 -630.7063 626.0114)" class="st3" width="3.8" height="3.5"/>
	
		<rect x="-190.2" y="416.4" transform="matrix(0.9083 -0.4183 0.4183 0.9083 -192.1617 -40.4185)" class="st3" width="3.8" height="3.5"/>
	
		<rect x="-208" y="411.9" transform="matrix(-0.5811 -0.8139 0.8139 -0.5811 -662.4793 486.2712)" class="st3" width="3.8" height="3.5"/>
	
		<rect x="-195" y="412.1" transform="matrix(0.5124 -0.8587 0.8587 0.5124 -449.5753 35.9649)" class="st3" width="3.8" height="3.5"/>
	
		<rect x="-201" y="410.5" transform="matrix(-4.259901e-02 -0.9991 0.9991 -4.259901e-02 -619.5469 230.8867)" class="st3" width="3.8" height="3.5"/>
	
		<rect x="-188" y="427.8" transform="matrix(0.9981 6.110577e-02 -6.110577e-02 0.9981 25.8986 12.1724)" class="st3" width="3.8" height="3.5"/>
	
		<rect x="-188.2" y="422.2" transform="matrix(0.9951 -9.851078e-02 9.851078e-02 0.9951 -42.6656 -16.2883)" class="st3" width="3.8" height="3.5"/>
</g>
<g>
	
		<rect x="-253.3" y="433.8" transform="matrix(0.8065 0.5912 -0.5912 0.8065 208.8291 232.9103)" class="st3" width="3.8" height="3.5"/>
	
		<rect id="area-10" x="-283.1" y="407" transform="matrix(2.399979e-03 -1 1 2.399979e-03 -689.2463 162.698)" class="st4" width="40.1" height="39.6"/>
	<circle class="st3" cx="-263.2" cy="426.9" r="10.5"/>
	
		<rect x="-276.4" y="433.6" transform="matrix(-0.9046 0.4263 -0.4263 -0.9046 -337.2357 946.1431)" class="st3" width="3.8" height="3.5"/>
	
		<rect x="-258.6" y="437.9" transform="matrix(0.5883 0.8086 -0.8086 0.5883 249.8273 388.5203)" class="st3" width="3.8" height="3.5"/>
	
		<rect x="-271.6" y="437.8" transform="matrix(-0.5045 0.8634 -0.8634 -0.5045 -26.2217 894.2065)" class="st3" width="3.8" height="3.5"/>
	
		<rect x="-265.5" y="439.3" transform="matrix(5.200731e-02 0.9986 -0.9986 5.200731e-02 190.4967 681.3635)" class="st3" width="3.8" height="3.5"/>
	
		<rect x="-278.7" y="422.3" transform="matrix(-0.9987 -5.189260e-02 5.189260e-02 -0.9987 -575.2593 833.1647)" class="st3" width="3.8" height="3.5"/>
	
		<rect x="-278.5" y="427.8" transform="matrix(-0.9943 0.107 -0.107 -0.9943 -505.663 886.2327)" class="st3" width="3.8" height="3.5"/>
	
		<rect x="-276.4" y="415.9" transform="matrix(-0.8013 -0.5982 0.5982 -0.8013 -744.285 588.2151)" class="st3" width="3.8" height="3.5"/>
	
		<rect x="-253.3" y="416.4" transform="matrix(0.9083 -0.4183 0.4183 0.9083 -197.9615 -66.8081)" class="st3" width="3.8" height="3.5"/>
	
		<rect x="-271" y="412" transform="matrix(-0.5809 -0.814 0.814 -0.5809 -762.263 434.9879)" class="st3" width="3.8" height="3.5"/>
	
		<rect x="-258.1" y="412" transform="matrix(0.5124 -0.8587 0.8587 0.5124 -480.203 -18.2268)" class="st3" width="3.8" height="3.5"/>
	
		<rect x="-264.1" y="410.6" transform="matrix(-4.249955e-02 -0.9991 0.9991 -4.249955e-02 -685.3215 167.8463)" class="st3" width="3.8" height="3.5"/>
	
		<rect x="-251.1" y="427.8" transform="matrix(0.9981 6.110577e-02 -6.110577e-02 0.9981 25.7804 16.028)" class="st3" width="3.8" height="3.5"/>
	
		<rect x="-251.3" y="422.2" transform="matrix(0.9951 -9.851078e-02 9.851078e-02 0.9951 -42.9734 -22.504)" class="st3" width="3.8" height="3.5"/>
</g>
<g>
	
		<rect x="-193.4" y="295.7" transform="matrix(1 -2.399979e-03 2.399979e-03 1 -0.723 -0.4371)" class="st5" width="21.8" height="10.7"/>
	
		<rect x="-192.1" y="291.1" transform="matrix(1 -2.299982e-03 2.299982e-03 1 -0.6741 -0.4366)" class="st5" width="3.8" height="3.6"/>
	
		<rect x="-187.2" y="291.1" transform="matrix(1 -2.599973e-03 2.599973e-03 1 -0.7621 -0.4807)" class="st5" width="3.8" height="3.6"/>
	
		<rect x="-176.6" y="291.1" transform="matrix(1 -2.799967e-03 2.799967e-03 1 -0.8207 -0.4879)" class="st5" width="3.8" height="3.6"/>
	
		<rect x="-182.1" y="291.1" transform="matrix(1 -1.999988e-03 1.999988e-03 1 -0.5861 -0.3598)" class="st5" width="3.8" height="3.6"/>
	
		<rect x="-192.1" y="307.4" transform="matrix(1 -2.599973e-03 2.599973e-03 1 -0.8045 -0.4934)" class="st5" width="3.8" height="3.6"/>
	
		<rect x="-187.2" y="307.4" transform="matrix(1 -1.899991e-03 1.899991e-03 1 -0.5878 -0.3515)" class="st5" width="3.8" height="3.6"/>
	
		<rect x="-176.5" y="307.4" transform="matrix(1 -1.899991e-03 1.899991e-03 1 -0.5878 -0.3311)" class="st5" width="3.8" height="3.6"/>
	
		<rect x="-182" y="307.4" transform="matrix(1 -2.599973e-03 2.599973e-03 1 -0.8045 -0.4671)" class="st5" width="3.8" height="3.6"/>
	
		<rect x="-170.5" y="302" transform="matrix(1 -2.399979e-03 2.399979e-03 1 -0.7296 -0.4037)" class="st5" width="3.8" height="3.6"/>
	
		<rect x="-170.6" y="296.5" transform="matrix(1 -1.999988e-03 1.999988e-03 1 -0.5969 -0.3367)" class="st5" width="3.8" height="3.6"/>
	
		<rect x="-198.5" y="302.1" transform="matrix(1 -2.699970e-03 2.699970e-03 1 -0.8212 -0.5296)" class="st5" width="3.8" height="3.6"/>
	
		<rect x="-198.6" y="296.5" transform="matrix(1 -2.799967e-03 2.799967e-03 1 -0.8359 -0.5495)" class="st5" width="3.8" height="3.6"/>
	
		<rect id="area-30" x="-205.3" y="288" transform="matrix(-1 2.499976e-03 -2.499976e-03 -1 -365.749 602.8177)" class="st6" width="44.1" height="26.4"/>
</g>
<g>
	
		<rect x="-167.8" y="428.2" transform="matrix(1 -2.399979e-03 2.399979e-03 1 -1.0409 -0.3752)" class="st5" width="21.8" height="10.7"/>
	
		<rect x="-166.5" y="423.6" transform="matrix(1 -2.799967e-03 2.799967e-03 1 -1.1917 -0.4591)" class="st5" width="3.8" height="3.6"/>
	
		<rect x="-161.5" y="423.6" transform="matrix(1 -2.299982e-03 2.299982e-03 1 -0.9788 -0.3659)" class="st5" width="3.8" height="3.6"/>
	<polygon class="st5" points="-150.9,423.6 -147.1,423.6 -147.1,427.1 -150.9,427.1 	"/>
	
		<rect x="-156.4" y="423.6" transform="matrix(1 -2.899964e-03 2.899964e-03 1 -1.2342 -0.4462)" class="st5" width="3.8" height="3.6"/>
	
		<rect x="-166.5" y="439.9" transform="matrix(1 -2.299982e-03 2.299982e-03 1 -1.0163 -0.3773)" class="st5" width="3.8" height="3.6"/>
	
		<rect x="-161.5" y="439.9" transform="matrix(1 -1.899991e-03 1.899991e-03 1 -0.8395 -0.3024)" class="st5" width="3.8" height="3.6"/>
	
		<rect x="-150.9" y="439.9" transform="matrix(1 -2.299982e-03 2.299982e-03 1 -1.0163 -0.3415)" class="st5" width="3.8" height="3.6"/>
	
		<rect x="-156.4" y="439.9" transform="matrix(1 -2.299982e-03 2.299982e-03 1 -1.0163 -0.3541)" class="st5" width="3.8" height="3.6"/>
	
		<rect x="-144.9" y="434.5" transform="matrix(1 -2.799967e-03 2.799967e-03 1 -1.2221 -0.3986)" class="st5" width="3.8" height="3.6"/>
	
		<rect x="-144.9" y="429" transform="matrix(1 -2.299982e-03 2.299982e-03 1 -0.9912 -0.3277)" class="st5" width="3.8" height="3.6"/>
	
		<rect x="-172.9" y="434.6" transform="matrix(1 -2.199985e-03 2.199985e-03 1 -0.9604 -0.3751)" class="st5" width="3.8" height="3.6"/>
	
		<rect x="-172.9" y="429.1" transform="matrix(1 -2.299982e-03 2.299982e-03 1 -0.9915 -0.3921)" class="st5" width="3.8" height="3.6"/>
	
		<rect id="area-8" x="-179.5" y="420.6" transform="matrix(-1 2.499976e-03 -2.499976e-03 -1 -313.8177 867.8532)" class="st6" width="44.1" height="26.3"/>
</g>
<g>
	
		<rect x="-169.8" y="348.6" transform="matrix(1 -2.399979e-03 2.399979e-03 1 -0.8499 -0.3803)" class="st5" width="21.8" height="10.7"/>
	
		<rect x="-168.6" y="344" transform="matrix(1 -2.699970e-03 2.699970e-03 1 -0.9342 -0.4487)" class="st5" width="3.8" height="3.6"/>
	
		<rect x="-163.6" y="344" transform="matrix(1 -2.299982e-03 2.299982e-03 1 -0.7957 -0.3709)" class="st5" width="3.8" height="3.6"/>
	
		<rect x="-153" y="344" transform="matrix(1 -2.199985e-03 2.199985e-03 1 -0.7611 -0.3315)" class="st5" width="3.8" height="3.6"/>
	
		<rect x="-158.5" y="344" transform="matrix(1 -2.599973e-03 2.599973e-03 1 -0.8995 -0.4059)" class="st5" width="3.8" height="3.6"/>
	
		<rect x="-168.5" y="360.3" transform="matrix(1 -2.399979e-03 2.399979e-03 1 -0.8695 -0.3987)" class="st5" width="3.8" height="3.6"/>
	
		<rect x="-163.6" y="360.3" transform="matrix(1 -1.799991e-03 1.799991e-03 1 -0.652 -0.2904)" class="st5" width="3.8" height="3.6"/>
	
		<rect x="-152.9" y="360.3" transform="matrix(1 -2.199985e-03 2.199985e-03 1 -0.7969 -0.3313)" class="st5" width="3.8" height="3.6"/>
	
		<rect x="-158.4" y="360.3" transform="matrix(1 -2.299982e-03 2.299982e-03 1 -0.8332 -0.3589)" class="st5" width="3.8" height="3.6"/>
	
		<rect x="-147" y="354.9" transform="matrix(1 -2.399979e-03 2.399979e-03 1 -0.8564 -0.3471)" class="st5" width="3.8" height="3.6"/>
	
		<rect x="-147" y="349.4" transform="matrix(1 -2.299982e-03 2.299982e-03 1 -0.8081 -0.3327)" class="st5" width="3.8" height="3.6"/>
	<rect x="-175" y="355" transform="matrix(1 -2.299982e-03 2.299982e-03 1 -0.821 -0.3971)" class="st5" width="3.8" height="3.6"/>
	
		<rect x="-175" y="349.5" transform="matrix(1 -2.199985e-03 2.199985e-03 1 -0.7732 -0.3799)" class="st5" width="3.8" height="3.6"/>
	
		<rect id="area-19" x="-181.7" y="340.9" transform="matrix(-1 2.499976e-03 -2.499976e-03 -1 -318.4167 708.5587)" class="st6" width="44.1" height="26.4"/>
</g>
<g>
	
		<rect x="-316.6" y="296.6" transform="matrix(1 -2.499976e-03 2.499976e-03 1 -0.7558 -0.7632)" class="st5" width="21.8" height="10.7"/>
	
		<rect x="-315.3" y="292" transform="matrix(1 -2.399979e-03 2.399979e-03 1 -0.706 -0.7512)" class="st5" width="3.8" height="3.6"/>
	
		<rect x="-310.3" y="292" transform="matrix(1 -2.799967e-03 2.799967e-03 1 -0.8238 -0.8623)" class="st5" width="3.8" height="3.6"/>
	
		<rect x="-299.7" y="291.9" transform="matrix(1 -1.899991e-03 1.899991e-03 1 -0.5585 -0.5652)" class="st5" width="3.8" height="3.6"/>
	<polygon class="st5" points="-305.2,292 -301.4,291.9 -301.4,295.5 -305.2,295.5 	"/>
	
		<rect x="-315.2" y="308.3" transform="matrix(1 -2.299982e-03 2.299982e-03 1 -0.714 -0.7197)" class="st5" width="3.8" height="3.6"/>
	
		<rect x="-310.3" y="308.3" transform="matrix(1 -1.799991e-03 1.799991e-03 1 -0.5586 -0.5546)" class="st5" width="3.8" height="3.6"/>
	
		<rect x="-299.7" y="308.3" transform="matrix(1 -1.799991e-03 1.799991e-03 1 -0.5586 -0.5355)" class="st5" width="3.8" height="3.6"/>
	
		<rect x="-305.2" y="308.3" transform="matrix(1 -2.299982e-03 2.299982e-03 1 -0.714 -0.6967)" class="st5" width="3.8" height="3.6"/>
	
		<rect x="-293.7" y="302.9" transform="matrix(1 -2.299982e-03 2.299982e-03 1 -0.7015 -0.6703)" class="st5" width="3.8" height="3.6"/>
	
		<rect x="-293.7" y="297.4" transform="matrix(1 -2.799967e-03 2.799967e-03 1 -0.8388 -0.8158)" class="st5" width="3.8" height="3.6"/>
	
		<rect x="-321.7" y="302.9" transform="matrix(1 -2.399979e-03 2.399979e-03 1 -0.7321 -0.7666)" class="st5" width="3.8" height="3.6"/>
	
		<rect x="-321.7" y="297.4" transform="matrix(1 -1.899991e-03 1.899991e-03 1 -0.569 -0.607)" class="st5" width="3.8" height="3.6"/>
	
		<rect id="area-31" x="-328.3" y="288.9" transform="matrix(-1 2.499976e-03 -2.499976e-03 -1 -611.7469 604.9248)" class="st6" width="44.1" height="26.4"/>
</g>
<g>
	
		<rect x="-315.5" y="348.6" transform="matrix(1 -2.499976e-03 2.499976e-03 1 -0.8858 -0.7603)" class="st5" width="21.8" height="10.7"/>
	
		<rect x="-314.2" y="344" transform="matrix(1 -2.399979e-03 2.399979e-03 1 -0.8308 -0.7485)" class="st5" width="3.8" height="3.6"/>
	
		<rect x="-309.3" y="344" transform="matrix(1 -2.599973e-03 2.599973e-03 1 -0.9001 -0.798)" class="st5" width="3.8" height="3.6"/>
	
		<rect x="-298.7" y="343.9" transform="matrix(1 -2.199985e-03 2.199985e-03 1 -0.7612 -0.6521)" class="st5" width="3.8" height="3.6"/>
	<rect x="-304.2" y="344" transform="matrix(1 -2.599973e-03 2.599973e-03 1 -0.9 -0.7847)" class="st5" width="3.8" height="3.6"/>
	
		<rect x="-314.2" y="360.3" transform="matrix(1 -2.299982e-03 2.299982e-03 1 -0.8336 -0.7173)" class="st5" width="3.8" height="3.6"/>
	
		<rect x="-309.3" y="360.3" transform="matrix(1 -1.999988e-03 1.999988e-03 1 -0.7248 -0.614)" class="st5" width="3.8" height="3.6"/>
	
		<rect x="-298.6" y="360.3" transform="matrix(1 -1.799991e-03 1.799991e-03 1 -0.6522 -0.5334)" class="st5" width="3.8" height="3.6"/>
	
		<rect x="-304.1" y="360.3" transform="matrix(1 -2.399979e-03 2.399979e-03 1 -0.8699 -0.7242)" class="st5" width="3.8" height="3.6"/>
	
		<rect x="-292.7" y="354.9" transform="matrix(1 -2.599973e-03 2.599973e-03 1 -0.9283 -0.7548)" class="st5" width="3.8" height="3.6"/>
	
		<rect x="-292.7" y="349.4" transform="matrix(1 -2.499976e-03 2.499976e-03 1 -0.8789 -0.7258)" class="st5" width="3.8" height="3.6"/>
	
		<rect x="-320.6" y="355" transform="matrix(1 -2.299982e-03 2.299982e-03 1 -0.8214 -0.732)" class="st5" width="3.8" height="3.6"/>
	
		<rect x="-320.7" y="349.4" transform="matrix(1 -2.599973e-03 2.599973e-03 1 -0.9141 -0.8276)" class="st5" width="3.8" height="3.6"/>
	
		<rect id="area-22" x="-327.4" y="340.9" transform="matrix(-1 2.499976e-03 -2.499976e-03 -1 -609.817 708.923)" class="st6" width="44.1" height="26.4"/>
</g>
<g>
	
		<rect x="-315.5" y="428.2" transform="matrix(1 -2.399979e-03 2.399979e-03 1 -1.0413 -0.7297)" class="st5" width="21.8" height="10.7"/>
	
		<rect x="-314.2" y="423.6" transform="matrix(1 -2.799967e-03 2.799967e-03 1 -1.1923 -0.8727)" class="st5" width="3.8" height="3.6"/>
	
		<rect x="-309.3" y="423.6" transform="matrix(1 -2.299982e-03 2.299982e-03 1 -0.9792 -0.7058)" class="st5" width="3.8" height="3.6"/>
	
		<rect x="-298.7" y="423.6" transform="matrix(1 -2.299982e-03 2.299982e-03 1 -0.9792 -0.6814)" class="st5" width="3.8" height="3.6"/>
	<polygon class="st5" points="-304.2,423.6 -300.3,423.6 -300.3,427.1 -304.2,427.1 	"/>
	
		<rect x="-314.2" y="439.9" transform="matrix(1 -2.299982e-03 2.299982e-03 1 -1.0167 -0.7171)" class="st5" width="3.8" height="3.6"/>
	
		<rect x="-309.3" y="439.9" transform="matrix(1 -1.899991e-03 1.899991e-03 1 -0.8397 -0.5832)" class="st5" width="3.8" height="3.6"/>
	
		<rect x="-298.6" y="439.9" transform="matrix(1 -2.299982e-03 2.299982e-03 1 -1.0166 -0.6812)" class="st5" width="3.8" height="3.6"/>
	
		<rect x="-304.1" y="439.9" transform="matrix(1 -2.299982e-03 2.299982e-03 1 -1.0167 -0.6938)" class="st5" width="3.8" height="3.6"/>
	
		<rect x="-292.6" y="434.5" transform="matrix(1 -2.799967e-03 2.799967e-03 1 -1.2227 -0.8122)" class="st5" width="3.8" height="3.6"/>
	
		<rect x="-292.7" y="429" transform="matrix(1 -2.299982e-03 2.299982e-03 1 -0.9916 -0.6676)" class="st5" width="3.8" height="3.6"/>
	
		<rect x="-320.6" y="434.6" transform="matrix(1 -2.199985e-03 2.199985e-03 1 -0.9608 -0.7)" class="st5" width="3.8" height="3.6"/>
	
		<rect x="-320.7" y="429.1" transform="matrix(1 -2.299982e-03 2.299982e-03 1 -0.9919 -0.732)" class="st5" width="3.8" height="3.6"/>
	
		<rect id="area-11" x="-327.4" y="420.6" transform="matrix(-1 2.499976e-03 -2.499976e-03 -1 -609.618 868.2232)" class="st6" width="44.1" height="26.3"/>
</g>
<g>
	
		<rect x="-158.6" y="412.6" transform="matrix(-0.5473 0.837 -0.837 -0.5473 104.3493 772.3015)" class="st7" width="3.8" height="3.5"/>
	
		<rect x="-147" y="412.3" transform="matrix(0.6651 0.7467 -0.7467 0.6651 260.5737 246.9824)" class="st7" width="3.8" height="3.5"/>
	
		<rect x="-153.4" y="414.3" transform="matrix(-1.799991e-03 1 -1 -1.799991e-03 264.2848 568.2311)" class="st7" width="3.8" height="3.5"/>
	
		<rect x="-154.6" y="395.2" transform="matrix(-2.499976e-03 1 -1 -2.499976e-03 243.8749 550.6998)" class="st7" width="3.8" height="3.5"/>
	
		<rect id="area-13" x="-164.5" y="393.7" transform="matrix(2.399979e-03 -1 1 2.399979e-03 -557.6976 254.6753)" class="st8" width="26.6" height="26.3"/>
	<circle class="st7" cx="-151.7" cy="406.8" r="6.3"/>
	
		<rect x="-160.4" y="398.2" transform="matrix(-0.7182 -0.6959 0.6959 -0.7182 -550.6836 576.9279)" class="st7" width="3.8" height="3.5"/>
	
		<rect x="-162.4" y="408.8" transform="matrix(-0.9253 0.3792 -0.3792 -0.9253 -153.3026 851.2628)" class="st7" width="3.8" height="3.5"/>
	
		<rect x="-163.1" y="403" transform="matrix(-0.9813 -0.1923 0.1923 -0.9813 -397.189 770.8903)" class="st7" width="3.8" height="3.5"/>
	
		<rect x="-148.6" y="396.6" transform="matrix(0.5221 -0.8529 0.8529 0.5221 -409.8724 65.2494)" class="st7" width="3.8" height="3.5"/>
	
		<rect x="-144.3" y="406.4" transform="matrix(0.9908 0.1355 -0.1355 0.9908 53.9881 23.0545)" class="st7" width="3.8" height="3.5"/>
	
		<rect x="-144.9" y="400.7" transform="matrix(0.9027 -0.4303 0.4303 0.9027 -187.0753 -22.3886)" class="st7" width="3.8" height="3.5"/>
</g>
<g>
	<polygon class="st7" points="-211.5,464.8 -213.6,468 -210.6,469.9 -208.6,466.8 	"/>
	
		<rect x="-201.4" y="465.2" transform="matrix(0.6653 0.7465 -0.7465 0.6653 281.8067 305.167)" class="st7" width="3.8" height="3.5"/>
	
		<rect x="-207.7" y="467.3" transform="matrix(-2.299982e-03 1 -1 -2.299982e-03 262.6895 675.935)" class="st7" width="3.8" height="3.5"/>
	
		<rect x="-209" y="448.2" transform="matrix(-2.299982e-03 1 -1 -2.299982e-03 242.3565 658.125)" class="st7" width="3.8" height="3.5"/>
	
		<rect id="area-3" x="-218.9" y="446.6" transform="matrix(2.499976e-03 -1 1 2.499976e-03 -664.8232 253.0245)" class="st8" width="26.6" height="26.3"/>
	<circle class="st7" cx="-206" cy="459.8" r="6.3"/>
	
		<rect x="-214.8" y="451.2" transform="matrix(-0.7182 -0.6959 0.6959 -0.7182 -681.0362 630.0827)" class="st7" width="3.8" height="3.5"/>
	
		<rect x="-216.7" y="461.8" transform="matrix(-0.9255 0.3788 -0.3788 -0.9255 -237.9986 973.884)" class="st7" width="3.8" height="3.5"/>
	
		<rect x="-217.5" y="456.1" transform="matrix(-0.9814 -0.1921 0.1921 -0.9814 -515.1622 865.7201)" class="st7" width="3.8" height="3.5"/>
	
		<rect x="-203.1" y="449.7" transform="matrix(0.522 -0.853 0.853 0.522 -481.2143 44.2121)" class="st7" width="3.8" height="3.5"/>
	
		<rect x="-198.6" y="459.4" transform="matrix(0.9908 0.1355 -0.1355 0.9908 60.6692 30.9016)" class="st7" width="3.8" height="3.5"/>
	
		<rect x="-199.2" y="453.6" transform="matrix(0.9026 -0.4304 0.4304 0.9026 -215.2009 -40.5985)" class="st7" width="3.8" height="3.5"/>
</g>
<g>
	<polygon class="st7" points="-157.2,464.8 -159.2,468 -156.3,469.9 -154.2,466.8 	"/>
	
		<rect x="-147" y="465.2" transform="matrix(0.6655 0.7464 -0.7464 0.6655 300.0272 264.5207)" class="st7" width="3.8" height="3.5"/>
	
		<rect x="-153.4" y="467.3" transform="matrix(-2.399979e-03 1 -1 -2.399979e-03 317.1682 621.6071)" class="st7" width="3.8" height="3.5"/>
	
		<rect x="-154.6" y="448.2" transform="matrix(-2.499976e-03 1 -1 -2.499976e-03 296.8889 603.8388)" class="st7" width="3.8" height="3.5"/>
	
		<rect id="area-1" x="-164.5" y="446.7" transform="matrix(2.499976e-03 -1 1 2.499976e-03 -610.687 307.4962)" class="st8" width="26.6" height="26.3"/>
	<circle class="st7" cx="-151.7" cy="459.8" r="6.3"/>
	
		<rect x="-160.5" y="451.1" transform="matrix(-0.7181 -0.6959 0.6959 -0.7181 -587.6116 667.7816)" class="st7" width="3.8" height="3.5"/>
	
		<rect x="-162.3" y="461.8" transform="matrix(-0.9255 0.3788 -0.3788 -0.9255 -133.2713 953.2576)" class="st7" width="3.8" height="3.5"/>
	
		<rect x="-163.1" y="456.1" transform="matrix(-0.9814 -0.1921 0.1921 -0.9814 -407.3744 876.1682)" class="st7" width="3.8" height="3.5"/>
	
		<rect x="-148.8" y="449.6" transform="matrix(0.522 -0.8529 0.8529 0.522 -455.1725 90.4547)" class="st7" width="3.8" height="3.5"/>
	
		<rect x="-144.2" y="459.4" transform="matrix(0.9908 0.1355 -0.1355 0.9908 61.1734 23.5308)" class="st7" width="3.8" height="3.5"/>
	
		<rect x="-144.9" y="453.7" transform="matrix(0.9027 -0.4303 0.4303 0.9027 -209.8824 -17.2316)" class="st7" width="3.8" height="3.5"/>
</g>
<g>
	
		<rect x="-347.8" y="439.5" transform="matrix(-0.5471 0.8371 -0.8371 -0.5471 -165.8308 972.1367)" class="st7" width="3.8" height="3.5"/>
	
		<rect x="-336.3" y="439.1" transform="matrix(0.6653 0.7466 -0.7466 0.6653 217.1914 397.2081)" class="st7" width="3.8" height="3.5"/>
	
		<rect x="-342.7" y="441.2" transform="matrix(-2.299982e-03 1 -1 -2.299982e-03 101.4138 784.7818)" class="st7" width="3.8" height="3.5"/>
	
		<rect x="-344" y="422.1" transform="matrix(-2.599973e-03 1 -1 -2.599973e-03 80.8957 767.0065)" class="st7" width="3.8" height="3.5"/>
	
		<rect id="area-12" x="-353.7" y="420.5" transform="matrix(2.399979e-03 -1 1 2.399979e-03 -773.2327 92.1818)" class="st8" width="26.6" height="26.3"/>
	<circle class="st7" cx="-341" cy="433.7" r="6.3"/>
	
		<rect x="-349.8" y="425.1" transform="matrix(-0.7182 -0.6959 0.6959 -0.7182 -894.7311 491.3302)" class="st7" width="3.8" height="3.5"/>
	
		<rect x="-351.7" y="435.7" transform="matrix(-0.9254 0.379 -0.379 -0.9254 -507.6787 974.8115)" class="st7" width="3.8" height="3.5"/>
	
		<rect x="-352.4" y="429.9" transform="matrix(-0.9813 -0.1923 0.1923 -0.9813 -777.416 787.7629)" class="st7" width="3.8" height="3.5"/>
	
		<rect x="-338" y="423.5" transform="matrix(0.5219 -0.853 0.853 0.5219 -523.447 -83.3952)" class="st7" width="3.8" height="3.5"/>
	
		<rect x="-333.5" y="433.3" transform="matrix(0.9908 0.1355 -0.1355 0.9908 55.8893 48.9404)" class="st7" width="3.8" height="3.5"/>
	
		<rect x="-334.2" y="427.5" transform="matrix(0.9027 -0.4303 0.4303 0.9027 -217.0416 -101.1973)" class="st7" width="3.8" height="3.5"/>
</g>
<g>
	
		<rect x="-317.3" y="412.3" transform="matrix(-0.5475 0.8368 -0.8368 -0.5475 -141.6234 904.7149)" class="st7" width="3.8" height="3.5"/>
	<rect x="-305.7" y="412" transform="matrix(0.665 0.7468 -0.7468 0.665 207.2106 365.472)" class="st7" width="3.8" height="3.5"/>
	
		<rect x="-312" y="414.1" transform="matrix(-2.299982e-03 1 -1 -2.299982e-03 105.0376 726.853)" class="st7" width="3.8" height="3.5"/>
	
		<rect x="-313.3" y="395" transform="matrix(-2.299982e-03 1 -1 -2.299982e-03 84.688 709.0328)" class="st7" width="3.8" height="3.5"/>
	
		<rect id="area-14" x="-323.2" y="393.4" transform="matrix(2.399979e-03 -1 1 2.399979e-03 -715.7368 95.7044)" class="st8" width="26.6" height="26.3"/>
	<circle class="st7" cx="-310.4" cy="406.6" r="6.3"/>
	
		<rect x="-319.2" y="398" transform="matrix(-0.7179 -0.6961 0.6961 -0.7179 -823.359 465.7899)" class="st7" width="3.8" height="3.5"/>
	
		<rect x="-321" y="408.6" transform="matrix(-0.9254 0.3791 -0.3791 -0.9254 -458.8224 911.0148)" class="st7" width="3.8" height="3.5"/>
	
		<rect x="-321.7" y="402.8" transform="matrix(-0.9815 -0.1915 0.1915 -0.9815 -711.1682 740.3403)" class="st7" width="3.8" height="3.5"/>
	
		<rect x="-307.4" y="396.4" transform="matrix(0.5216 -0.8532 0.8532 0.5216 -485.8251 -70.1775)" class="st7" width="3.8" height="3.5"/>
	
		<rect x="-302.9" y="406.2" transform="matrix(0.9907 0.1361 -0.1361 0.9907 52.7197 44.7593)" class="st7" width="3.8" height="3.5"/>
	
		<rect x="-303.6" y="400.3" transform="matrix(0.9026 -0.4305 0.4305 0.9026 -202.487 -90.7168)" class="st7" width="3.8" height="3.5"/>
</g>
<g>
	
		<rect x="-157.1" y="334.3" transform="matrix(-0.5473 0.8369 -0.8369 -0.5473 41.046 649.8965)" class="st7" width="3.8" height="3.5"/>
	
		<rect x="-145.5" y="333.9" transform="matrix(0.6649 0.7469 -0.7469 0.6649 202.6107 219.7395)" class="st7" width="3.8" height="3.5"/>
	
		<rect x="-151.8" y="336" transform="matrix(-2.299982e-03 1 -1 -2.299982e-03 187.5629 488.4569)" class="st7" width="3.8" height="3.5"/>
	
		<rect x="-153" y="317" transform="matrix(-2.499976e-03 1 -1 -2.499976e-03 167.2459 470.6895)" class="st7" width="3.8" height="3.5"/>
	
		<rect id="area-24" x="-163" y="315.4" transform="matrix(2.399979e-03 -1 1 2.399979e-03 -477.896 178.0525)" class="st8" width="26.6" height="26.3"/>
	<circle class="st7" cx="-150.2" cy="328.6" r="6.3"/>
	
		<rect x="-158.9" y="319.9" transform="matrix(-0.7182 -0.6959 0.6959 -0.7182 -493.606 443.3523)" class="st7" width="3.8" height="3.5"/>
	
		<rect x="-160.8" y="330.6" transform="matrix(-0.9255 0.3788 -0.3788 -0.9255 -180.0696 700.0659)" class="st7" width="3.8" height="3.5"/>
	
		<rect x="-161.6" y="324.7" transform="matrix(-0.9814 -0.192 0.192 -0.9814 -379.0953 616.1311)" class="st7" width="3.8" height="3.5"/>
	
		<rect x="-147.2" y="318.4" transform="matrix(0.5219 -0.853 0.853 0.5219 -342.5077 29.1317)" class="st7" width="3.8" height="3.5"/>
	
		<rect x="-142.7" y="328.2" transform="matrix(0.9907 0.1361 -0.1361 0.9907 43.594 22.2308)" class="st7" width="3.8" height="3.5"/>
	
		<rect x="-143.4" y="322.3" transform="matrix(0.9023 -0.4312 0.4312 0.9023 -153.5688 -29.3328)" class="st7" width="3.8" height="3.5"/>
</g>
<g>
	
		<rect x="-304.8" y="333.9" transform="matrix(-0.5473 0.8369 -0.8369 -0.5473 -187.7648 772.821)" class="st7" width="3.8" height="3.5"/>
	
		<rect x="-293.2" y="333.4" transform="matrix(0.6654 0.7465 -0.7465 0.6654 152.7497 329.6156)" class="st7" width="3.8" height="3.5"/>
	
		<rect x="-299.5" y="335.5" transform="matrix(-2.299982e-03 1 -1 -2.299982e-03 38.9006 635.6535)" class="st7" width="3.8" height="3.5"/>
	
		<rect x="-300.8" y="316.4" transform="matrix(-2.299982e-03 1 -1 -2.299982e-03 18.5667 617.8431)" class="st7" width="3.8" height="3.5"/>
	
		<rect id="area-27" x="-310.7" y="314.9" transform="matrix(2.399979e-03 -1 1 2.399979e-03 -624.7497 29.9365)" class="st8" width="26.6" height="26.3"/>
	<circle class="st7" cx="-297.9" cy="328" r="6.3"/>
	
		<rect x="-306.7" y="319.4" transform="matrix(-0.7184 -0.6956 0.6956 -0.7184 -747.0653 339.8029)" class="st7" width="3.8" height="3.5"/>
	
		<rect x="-308.5" y="330" transform="matrix(-0.9255 0.3787 -0.3787 -0.9255 -464.743 754.8093)" class="st7" width="3.8" height="3.5"/>
	
		<rect x="-309.3" y="324.3" transform="matrix(-0.9814 -0.192 0.192 -0.9814 -671.692 586.9673)" class="st7" width="3.8" height="3.5"/>
	
		<rect x="-294.9" y="317.8" transform="matrix(0.5218 -0.8531 0.8531 0.5218 -412.6912 -97.1422)" class="st7" width="3.8" height="3.5"/>
	
		<rect x="-290.3" y="327.6" transform="matrix(0.9907 0.1357 -0.1357 0.9907 42.0244 42.1907)" class="st7" width="3.8" height="3.5"/>
	
		<rect x="-291.1" y="321.9" transform="matrix(0.9025 -0.4307 0.4307 0.9025 -167.5872 -93.0242)" class="st7" width="3.8" height="3.5"/>
</g>
<g>
	
		<rect x="-157.2" y="308.1" transform="matrix(-0.5473 0.8369 -0.8369 -0.5473 19.0108 609.3799)" class="st7" width="3.8" height="3.5"/>
	
		<rect x="-145.6" y="307.7" transform="matrix(0.665 0.7468 -0.7468 0.665 182.9583 210.984)" class="st7" width="3.8" height="3.5"/>
	
		<rect x="-151.9" y="309.8" transform="matrix(-2.499976e-03 1 -1 -2.499976e-03 161.1693 462.3126)" class="st7" width="3.8" height="3.5"/>
	
		<rect x="-153.2" y="290.7" transform="matrix(-2.199985e-03 1 -1 -2.199985e-03 140.8566 444.418)" class="st7" width="3.8" height="3.5"/>
	
		<rect id="area-29" x="-163.1" y="289.2" transform="matrix(2.399979e-03 -1 1 2.399979e-03 -451.8657 151.8167)" class="st8" width="26.6" height="26.3"/>
	<circle class="st7" cx="-150.3" cy="302.3" r="6.3"/>
	
		<rect x="-159" y="293.6" transform="matrix(-0.7184 -0.6957 0.6957 -0.7184 -475.4652 398.2263)" class="st7" width="3.8" height="3.5"/>
	
		<rect x="-161" y="304.3" transform="matrix(-0.9255 0.3787 -0.3787 -0.9255 -190.4707 649.5198)" class="st7" width="3.8" height="3.5"/>
	
		<rect x="-161.6" y="298.5" transform="matrix(-0.9814 -0.1921 0.1921 -0.9814 -374.1231 564.2131)" class="st7" width="3.8" height="3.5"/>
	
		<rect x="-147.3" y="292" transform="matrix(0.5216 -0.8532 0.8532 0.5216 -320.2217 16.482)" class="st7" width="3.8" height="3.5"/>
	
		<rect x="-142.8" y="301.9" transform="matrix(0.9908 0.1357 -0.1357 0.9908 39.9011 21.9266)" class="st7" width="3.8" height="3.5"/>
	
		<rect x="-143.5" y="296" transform="matrix(0.9025 -0.4306 0.4306 0.9025 -142.026 -31.9588)" class="st7" width="3.8" height="3.5"/>
</g>
<g>
	
		<rect x="-349.3" y="359.8" transform="matrix(-0.5472 0.837 -0.837 -0.5472 -234.8755 850.158)" class="st7" width="3.8" height="3.5"/>
	
		<rect x="-337.7" y="359.4" transform="matrix(0.6651 0.7467 -0.7467 0.6651 157.2113 371.64)" class="st7" width="3.8" height="3.5"/>
	
		<rect x="-343.9" y="361.5" transform="matrix(-2.299982e-03 1 -1 -2.299982e-03 20.4253 706.0828)" class="st7" width="3.8" height="3.5"/>
	
		<rect x="-345.2" y="342.4" transform="matrix(-2.599973e-03 1 -1 -2.599973e-03 1.941407e-04 688.3786)" class="st7" width="3.8" height="3.5"/>
	
		<rect id="area-23" x="-355.3" y="340.8" transform="matrix(2.399979e-03 -1 1 2.399979e-03 -695.1064 11.1785)" class="st8" width="26.6" height="26.3"/>
	<circle class="st7" cx="-342.3" cy="354" r="6.3"/>
	
		<rect x="-351.1" y="345.3" transform="matrix(-0.7179 -0.6961 0.6961 -0.7179 -841.41 353.0995)" class="st7" width="3.8" height="3.5"/>
	
		<rect x="-353" y="355.9" transform="matrix(-0.9254 0.3791 -0.3791 -0.9254 -540.4287 821.6882)" class="st7" width="3.8" height="3.5"/>
	
		<rect x="-353.8" y="350.2" transform="matrix(-0.9814 -0.1919 0.1919 -0.9814 -764.7939 629.7653)" class="st7" width="3.8" height="3.5"/>
	
		<rect x="-339.4" y="343.8" transform="matrix(0.5217 -0.8531 0.8531 0.5217 -456.2042 -122.6188)" class="st7" width="3.8" height="3.5"/>
	
		<rect x="-334.9" y="353.6" transform="matrix(0.9908 0.1356 -0.1356 0.9908 45.1066 48.434)" class="st7" width="3.8" height="3.5"/>
	
		<rect x="-335.6" y="347.8" transform="matrix(0.9027 -0.4303 0.4303 0.9027 -182.8677 -109.5784)" class="st7" width="3.8" height="3.5"/>
</g>
<g>
	
		<rect x="-196.3" y="280.6" transform="matrix(-0.5472 0.837 -0.837 -0.5472 -64.4936 599.5624)" class="st7" width="3.8" height="3.5"/>
	
		<rect x="-184.7" y="280.3" transform="matrix(0.665 0.7468 -0.7468 0.665 149.3643 231.0002)" class="st7" width="3.8" height="3.5"/>
	
		<rect x="-191" y="282.3" transform="matrix(-2.299982e-03 1 -1 -2.299982e-03 94.5531 473.8437)" class="st7" width="3.8" height="3.5"/>
	
		<rect x="-192.3" y="263.3" transform="matrix(-2.299982e-03 1 -1 -2.299982e-03 74.2306 456.0186)" class="st7" width="3.8" height="3.5"/>
	
		<rect id="area-34" x="-202.2" y="261.7" transform="matrix(2.399979e-03 -1 1 2.399979e-03 -463.3074 85.2451)" class="st8" width="26.6" height="26.3"/>
	<circle class="st7" cx="-189.4" cy="274.9" r="6.3"/>
	
		<rect x="-198.2" y="266.2" transform="matrix(-0.718 -0.6961 0.6961 -0.718 -523.6944 323.6688)" class="st7" width="3.8" height="3.5"/>
	
		<rect x="-200" y="276.8" transform="matrix(-0.9254 0.3791 -0.3791 -0.9254 -275.8686 611.3713)" class="st7" width="3.8" height="3.5"/>
	
		<rect x="-200.8" y="271" transform="matrix(-0.9815 -0.1917 0.1917 -0.9815 -446.411 502.2917)" class="st7" width="3.8" height="3.5"/>
	
		<rect x="-186.4" y="264.6" transform="matrix(0.5221 -0.8529 0.8529 0.5221 -315.3457 -30.0391)" class="st7" width="3.8" height="3.5"/>
	
		<rect x="-181.9" y="274.5" transform="matrix(0.9907 0.1358 -0.1358 0.9907 35.8458 27.0003)" class="st7" width="3.8" height="3.5"/>
	
		<rect x="-182.6" y="268.6" transform="matrix(0.9025 -0.4306 0.4306 0.9025 -134.0367 -51.4576)" class="st7" width="3.8" height="3.5"/>
</g>
<g>
	
		<rect x="-304.8" y="280.6" transform="matrix(-0.5471 0.8371 -0.8371 -0.5471 -232.3583 690.3584)" class="st7" width="3.8" height="3.5"/>
	
		<rect x="-293.2" y="280.3" transform="matrix(0.6652 0.7467 -0.7467 0.6652 113.0509 311.9205)" class="st7" width="3.8" height="3.5"/>
	
		<rect x="-299.5" y="282.2" transform="matrix(-2.599973e-03 1 -1 -2.599973e-03 -14.4234 582.3733)" class="st7" width="3.8" height="3.5"/>
	
		<rect x="-300.8" y="263.3" transform="matrix(-2.299982e-03 1 -1 -2.299982e-03 -34.5738 564.5739)" class="st7" width="3.8" height="3.5"/>
	
		<rect id="area-35" x="-310.8" y="261.8" transform="matrix(2.399979e-03 -1 1 2.399979e-03 -571.6965 -23.1917)" class="st8" width="26.6" height="26.3"/>
	<circle class="st7" cx="-297.9" cy="274.9" r="6.3"/>
	
		<rect x="-306.7" y="266.3" transform="matrix(-0.718 -0.696 0.696 -0.718 -710.1985 248.2991)" class="st7" width="3.8" height="3.5"/>
	
		<rect x="-308.5" y="276.8" transform="matrix(-0.9254 0.379 -0.379 -0.9254 -484.7939 652.4714)" class="st7" width="3.8" height="3.5"/>
	
		<rect x="-309.3" y="271" transform="matrix(-0.9815 -0.1917 0.1917 -0.9815 -661.4011 481.4783)" class="st7" width="3.8" height="3.5"/>
	
		<rect x="-294.9" y="264.6" transform="matrix(0.522 -0.853 0.853 0.522 -367.2565 -122.5981)" class="st7" width="3.8" height="3.5"/>
	
		<rect x="-290.4" y="274.5" transform="matrix(0.9907 0.1358 -0.1358 0.9907 34.8419 41.7351)" class="st7" width="3.8" height="3.5"/>
	
		<rect x="-291.2" y="268.7" transform="matrix(0.9026 -0.4305 0.4305 0.9026 -144.5984 -98.1875)" class="st7" width="3.8" height="3.5"/>
</g>
<g>
	
		<rect x="-350.2" y="307.1" transform="matrix(-0.5473 0.837 -0.837 -0.5473 -280.4794 769.3884)" class="st7" width="3.8" height="3.5"/>
	
		<rect x="-338.7" y="306.7" transform="matrix(0.665 0.7468 -0.7468 0.665 117.5834 354.8386)" class="st7" width="3.8" height="3.5"/>
	
		<rect x="-345" y="308.8" transform="matrix(-2.299982e-03 1 -1 -2.299982e-03 -33.3458 654.3498)" class="st7" width="3.8" height="3.5"/>
	
		<rect x="-346.3" y="289.7" transform="matrix(-2.399979e-03 1 -1 -2.399979e-03 -53.7181 636.5604)" class="st7" width="3.8" height="3.5"/>
	
		<rect id="area-32" x="-356.2" y="288.1" transform="matrix(2.399979e-03 -1 1 2.399979e-03 -643.3901 -42.3581)" class="st8" width="26.6" height="26.3"/>
	<circle class="st7" cx="-343.4" cy="301.3" r="6.3"/>
	
		<rect x="-352.2" y="292.7" transform="matrix(-0.718 -0.6961 0.6961 -0.718 -806.7565 261.9336)" class="st7" width="3.8" height="3.5"/>
	
		<rect x="-354.1" y="303.3" transform="matrix(-0.9254 0.3791 -0.3791 -0.9254 -562.4866 720.862)" class="st7" width="3.8" height="3.5"/>
	
		<rect x="-354.7" y="297.6" transform="matrix(-0.9815 -0.1916 0.1916 -0.9815 -756.4466 525.5407)" class="st7" width="3.8" height="3.5"/>
	
		<rect x="-340.4" y="291.1" transform="matrix(0.5217 -0.8531 0.8531 0.5217 -411.7148 -148.6882)" class="st7" width="3.8" height="3.5"/>
	
		<rect x="-335.9" y="300.9" transform="matrix(0.9908 0.1355 -0.1355 0.9908 37.9275 48.0435)" class="st7" width="3.8" height="3.5"/>
	
		<rect x="-336.6" y="295.1" transform="matrix(0.9026 -0.4305 0.4305 0.9026 -160.4007 -115.1611)" class="st7" width="3.8" height="3.5"/>
</g>
<g>
	
		<rect x="-156.6" y="387.2" transform="matrix(-1 -2.499976e-03 2.499976e-03 -1 -310.6746 777.7725)" class="st9" width="3.5" height="3.8"/>
	
		<rect x="-152.4" y="387.2" transform="matrix(-1 -1.999988e-03 1.999988e-03 -1 -302.0797 777.8581)" class="st9" width="3.5" height="3.8"/>
	
		<rect x="-148.2" y="387.2" transform="matrix(-1 -2.499976e-03 2.499976e-03 -1 -293.8744 777.7937)" class="st9" width="3.5" height="3.8"/>
	
		<rect x="-156.6" y="368.5" transform="matrix(-1 -2.699970e-03 2.699970e-03 -1 -310.7018 740.3419)" class="st9" width="3.5" height="3.8"/>
	
		<rect x="-152.4" y="368.5" transform="matrix(-1 -2.799967e-03 2.799967e-03 -1 -302.3387 740.3383)" class="st9" width="3.5" height="3.8"/>
	
		<rect x="-148.3" y="368.5" transform="matrix(-1 -1.799991e-03 1.799991e-03 -1 -293.768 740.495)" class="st9" width="3.5" height="3.8"/>
	<polygon class="st9" points="-143.3,385.8 -139.5,385.8 -139.5,382.3 -143.3,382.3 	"/>
	
		<rect x="-143.3" y="378.1" transform="matrix(1 2.199985e-03 -2.199985e-03 1 0.8353 0.3119)" class="st9" width="3.8" height="3.5"/>
	
		<rect x="-143.3" y="373.9" transform="matrix(1 1.699994e-03 -1.699994e-03 1 0.6384 0.2409)" class="st9" width="3.8" height="3.5"/>
	
		<rect x="-161.9" y="382.2" transform="matrix(1 2.899964e-03 -2.899964e-03 1 1.1127 0.4655)" class="st9" width="3.8" height="3.5"/>
	
		<rect x="-161.9" y="378" transform="matrix(1 2.099985e-03 -2.099985e-03 1 0.7971 0.3368)" class="st9" width="3.8" height="3.5"/>
	
		<rect x="-161.9" y="373.8" transform="matrix(1 2.699970e-03 -2.699970e-03 1 1.0133 0.4333)" class="st9" width="3.8" height="3.5"/>
	
		<rect x="-157.3" y="373.3" transform="matrix(-1 -2.499976e-03 2.499976e-03 -1 -302.451 759.1827)" class="st9" width="13.1" height="13"/>
	
		<rect id="area-18" x="-163.9" y="366.5" transform="matrix(-1 -2.399979e-03 2.399979e-03 -1 -302.1128 758.7982)" class="st10" width="26.6" height="26.2"/>
</g>
<g>
	<polygon class="st7" points="-315.8,384.9 -317.8,388 -314.9,390 -312.9,386.8 	"/>
	
		<rect x="-305.7" y="385.3" transform="matrix(0.6653 0.7466 -0.7466 0.6653 187.2822 356.3629)" class="st7" width="3.8" height="3.5"/>
	
		<rect x="-312" y="387.4" transform="matrix(-2.299982e-03 1 -1 -2.299982e-03 78.2817 700.1143)" class="st7" width="3.8" height="3.5"/>
	
		<rect x="-313.2" y="368.3" transform="matrix(-2.299982e-03 1 -1 -2.299982e-03 58.0492 682.201)" class="st7" width="3.8" height="3.5"/>
	
		<rect id="area-17" x="-323.2" y="366.7" transform="matrix(2.399979e-03 -1 1 2.399979e-03 -689.0635 69.0175)" class="st8" width="26.6" height="26.3"/>
	<circle class="st7" cx="-310.3" cy="379.9" r="6.3"/>
	
		<rect x="-319.1" y="371.3" transform="matrix(-0.718 -0.696 0.696 -0.718 -804.6445 420.1198)" class="st7" width="3.8" height="3.5"/>
	
		<rect x="-321" y="381.9" transform="matrix(-0.9253 0.3792 -0.3792 -0.9253 -468.8598 859.5961)" class="st7" width="3.8" height="3.5"/>
	
		<rect x="-321.7" y="376.1" transform="matrix(-0.9814 -0.1921 0.1921 -0.9814 -706.2648 687.2073)" class="st7" width="3.8" height="3.5"/>
	
		<rect x="-307.3" y="369.7" transform="matrix(0.5218 -0.8531 0.8531 0.5218 -462.9294 -82.9264)" class="st7" width="3.8" height="3.5"/>
	
		<rect x="-302.9" y="379.5" transform="matrix(0.9907 0.1359 -0.1359 0.9907 49.0163 44.4397)" class="st7" width="3.8" height="3.5"/>
	
		<rect x="-303.6" y="373.7" transform="matrix(0.9027 -0.4303 0.4303 0.9027 -190.8972 -93.2845)" class="st7" width="3.8" height="3.5"/>
</g>
<g>
	<polygon class="st7" points="-262.9,464.8 -264.9,468 -262,469.9 -259.9,466.8 	"/>
	
		<rect x="-252.7" y="465.2" transform="matrix(0.6652 0.7467 -0.7467 0.6652 264.7101 343.6411)" class="st7" width="3.8" height="3.5"/>
	
		<rect x="-259.1" y="467.3" transform="matrix(-2.299982e-03 1 -1 -2.299982e-03 211.2353 727.2726)" class="st7" width="3.8" height="3.5"/>
	
		<rect x="-260.4" y="448.3" transform="matrix(-2.299982e-03 1 -1 -2.299982e-03 191 709.5634)" class="st7" width="3.8" height="3.5"/>
	
		<rect id="area-4" x="-270.2" y="446.7" transform="matrix(2.399979e-03 -1 1 2.399979e-03 -716.1707 201.8662)" class="st8" width="26.6" height="26.3"/>
	<circle class="st7" cx="-257.4" cy="459.8" r="6.3"/>
	
		<rect x="-266.2" y="451.2" transform="matrix(-0.7181 -0.6959 0.6959 -0.7181 -769.2393 594.2451)" class="st7" width="3.8" height="3.5"/>
	
		<rect x="-268.1" y="461.8" transform="matrix(-0.9254 0.3789 -0.3789 -0.9254 -336.9095 993.3237)" class="st7" width="3.8" height="3.5"/>
	
		<rect x="-268.8" y="456" transform="matrix(-0.9814 -0.1922 0.1922 -0.9814 -616.8287 855.6628)" class="st7" width="3.8" height="3.5"/>
	
		<rect x="-254.4" y="449.5" transform="matrix(0.5217 -0.8531 0.8531 0.5217 -505.7615 0.3758)" class="st7" width="3.8" height="3.5"/>
	
		<rect x="-250" y="459.4" transform="matrix(0.9908 0.1355 -0.1355 0.9908 60.1946 37.8659)" class="st7" width="3.8" height="3.5"/>
	
		<rect x="-250.7" y="453.6" transform="matrix(0.9027 -0.4302 0.4302 0.9027 -220.1165 -62.722)" class="st7" width="3.8" height="3.5"/>
</g>
<g>
	<polygon class="st7" points="-319.2,464.8 -321.2,468 -318.3,469.9 -316.2,466.8 	"/>
	
		<rect x="-309" y="465.2" transform="matrix(0.6652 0.7467 -0.7467 0.6652 245.8598 385.6759)" class="st7" width="3.8" height="3.5"/>
	
		<rect x="-315.4" y="467.3" transform="matrix(-2.299982e-03 1 -1 -2.299982e-03 154.8134 783.5643)" class="st7" width="3.8" height="3.5"/>
	
		<rect x="-316.7" y="448.3" transform="matrix(-2.299982e-03 1 -1 -2.299982e-03 134.5789 765.8549)" class="st7" width="3.8" height="3.5"/>
	
		<rect id="area-6" x="-326.5" y="446.7" transform="matrix(2.399979e-03 -1 1 2.399979e-03 -772.3304 145.5695)" class="st8" width="26.6" height="26.3"/>
	<circle class="st7" cx="-313.7" cy="459.8" r="6.3"/>
	
		<rect x="-322.5" y="451.2" transform="matrix(-0.7182 -0.6959 0.6959 -0.7182 -866.0176 555.0906)" class="st7" width="3.8" height="3.5"/>
	
		<rect x="-324.4" y="461.8" transform="matrix(-0.9254 0.379 -0.379 -0.9254 -445.2263 1014.7271)" class="st7" width="3.8" height="3.5"/>
	
		<rect x="-325.1" y="456" transform="matrix(-0.9814 -0.1922 0.1922 -0.9814 -728.3813 844.838)" class="st7" width="3.8" height="3.5"/>
	
		<rect x="-310.6" y="449.6" transform="matrix(0.5218 -0.8531 0.8531 0.5218 -532.6727 -47.524)" class="st7" width="3.8" height="3.5"/>
	
		<rect x="-306.3" y="459.4" transform="matrix(0.9908 0.1355 -0.1355 0.9908 59.6751 45.4946)" class="st7" width="3.8" height="3.5"/>
	
		<rect x="-307" y="453.6" transform="matrix(0.9027 -0.4302 0.4302 0.9027 -225.5913 -86.9471)" class="st7" width="3.8" height="3.5"/>
</g>
<g>
	
		<rect x="-184.5" y="467.7" transform="matrix(-1 -3.099955e-03 3.099955e-03 -1 -366.9578 938.5939)" class="st9" width="3.5" height="3.8"/>
	
		<rect x="-180.3" y="467.7" transform="matrix(-1 -2.699970e-03 2.699970e-03 -1 -358.3696 938.6779)" class="st9" width="3.5" height="3.8"/>
	
		<rect x="-176.1" y="467.7" transform="matrix(-1 -2.099985e-03 2.099985e-03 -1 -349.6876 938.7933)" class="st9" width="3.5" height="3.8"/>
	
		<rect x="-184.4" y="449" transform="matrix(-1 -2.499976e-03 2.499976e-03 -1 -366.4289 901.303)" class="st9" width="3.5" height="3.8"/>
	
		<rect x="-180.2" y="449" transform="matrix(-1 -2.499976e-03 2.499976e-03 -1 -358.029 901.3135)" class="st9" width="3.5" height="3.8"/>
	
		<rect x="-176" y="449.1" transform="matrix(-1 -2.099985e-03 2.099985e-03 -1 -349.4488 901.5935)" class="st9" width="3.5" height="3.8"/>
	
		<rect x="-171.1" y="462.8" transform="matrix(1 2.399979e-03 -2.399979e-03 1 1.1144 0.4073)" class="st9" width="3.8" height="3.5"/>
	
		<rect x="-171" y="458.6" transform="matrix(1 1.799991e-03 -1.799991e-03 1 0.8283 0.3051)" class="st9" width="3.8" height="3.5"/>
	
		<rect x="-171" y="454.4" transform="matrix(1 2.199985e-03 -2.199985e-03 1 1.0031 0.3731)" class="st9" width="3.8" height="3.5"/>
	
		<rect x="-189.7" y="462.7" transform="matrix(1 2.199985e-03 -2.199985e-03 1 1.0213 0.4142)" class="st9" width="3.8" height="3.5"/>
	
		<rect x="-189.7" y="458.5" transform="matrix(1 2.499976e-03 -2.499976e-03 1 1.15 0.4709)" class="st9" width="3.8" height="3.5"/>
	
		<rect x="-189.6" y="454.3" transform="matrix(1 2.899964e-03 -2.899964e-03 1 1.3217 0.5462)" class="st9" width="3.8" height="3.5"/>
	
		<rect x="-185" y="453.8" transform="matrix(-1 -2.499976e-03 2.499976e-03 -1 -358.0525 920.1137)" class="st9" width="13.1" height="13"/>
	
		<rect id="area-2" x="-191.6" y="447" transform="matrix(-1 -2.499976e-03 2.499976e-03 -1 -357.752 919.7144)" class="st10" width="26.6" height="26.2"/>
</g>
<g>
	
		<rect x="-345.8" y="468" transform="matrix(-1 -2.499976e-03 2.499976e-03 -1 -689.2771 938.8997)" class="st9" width="3.5" height="3.8"/>
	
		<rect x="-341.5" y="468" transform="matrix(-1 -1.999988e-03 1.999988e-03 -1 -680.4417 939.08)" class="st9" width="3.5" height="3.8"/>
	
		<rect x="-337.3" y="468" transform="matrix(-1 -1.899991e-03 1.899991e-03 -1 -671.9945 939.1218)" class="st9" width="3.5" height="3.8"/>
	
		<rect x="-345.7" y="449.4" transform="matrix(-1 -2.499976e-03 2.499976e-03 -1 -689.0305 901.6998)" class="st9" width="3.5" height="3.8"/>
	
		<rect x="-341.5" y="449.4" transform="matrix(-1 -2.499976e-03 2.499976e-03 -1 -680.6304 901.7105)" class="st9" width="3.5" height="3.8"/>
	
		<rect x="-337.3" y="449.4" transform="matrix(-1 -2.099985e-03 2.099985e-03 -1 -672.0495 901.8549)" class="st9" width="3.5" height="3.8"/>
	
		<rect x="-332.4" y="463.1" transform="matrix(1 2.799967e-03 -2.799967e-03 1 1.3002 0.9271)" class="st9" width="3.8" height="3.5"/>
	
		<rect x="-332.3" y="458.9" transform="matrix(1 2.499976e-03 -2.499976e-03 1 1.1505 0.8274)" class="st9" width="3.8" height="3.5"/>
	
		<rect x="-332.3" y="454.7" transform="matrix(1 2.199985e-03 -2.199985e-03 1 1.0033 0.7279)" class="st9" width="3.8" height="3.5"/>
	
		<rect x="-351" y="463.1" transform="matrix(1 2.299982e-03 -2.299982e-03 1 1.0682 0.8041)" class="st9" width="3.8" height="3.5"/>
	
		<rect x="-351" y="458.9" transform="matrix(1 2.199985e-03 -2.199985e-03 1 1.0125 0.7691)" class="st9" width="3.8" height="3.5"/>
	
		<rect x="-351" y="454.7" transform="matrix(1 2.799967e-03 -2.799967e-03 1 1.2766 0.9792)" class="st9" width="3.8" height="3.5"/>
	
		<rect x="-346.4" y="454.2" transform="matrix(-1 -2.399979e-03 2.399979e-03 -1 -680.8077 920.5439)" class="st9" width="13.1" height="13"/>
	
		<rect id="area-7" x="-353" y="447.4" transform="matrix(-1 -2.499976e-03 2.499976e-03 -1 -680.5535 920.1105)" class="st10" width="26.6" height="26.2"/>
</g>
<g>
	
		<rect x="-291.7" y="468.1" transform="matrix(-1 -2.499976e-03 2.499976e-03 -1 -581.0769 939.2348)" class="st9" width="3.5" height="3.8"/>
	
		<rect x="-287.5" y="468.1" transform="matrix(-1 -2.499976e-03 2.499976e-03 -1 -572.6769 939.2455)" class="st9" width="3.5" height="3.8"/>
	
		<rect x="-283.2" y="468.2" transform="matrix(-1 -2.099985e-03 2.099985e-03 -1 -563.8891 939.5685)" class="st9" width="3.5" height="3.8"/>
	
		<rect x="-291.6" y="449.5" transform="matrix(-1 -3.099955e-03 3.099955e-03 -1 -581.1021 901.8621)" class="st9" width="3.5" height="3.8"/>
	
		<rect x="-287.4" y="449.5" transform="matrix(-1 -2.499976e-03 2.499976e-03 -1 -572.4308 902.0457)" class="st9" width="3.5" height="3.8"/>
	
		<rect x="-283.2" y="449.5" transform="matrix(-1 -1.899991e-03 1.899991e-03 -1 -563.7594 902.2244)" class="st9" width="3.5" height="3.8"/>
	
		<rect x="-278.3" y="463.3" transform="matrix(1 2.699970e-03 -2.699970e-03 1 1.2546 0.7479)" class="st9" width="3.8" height="3.5"/>
	
		<rect x="-278.3" y="459.1" transform="matrix(1 1.799991e-03 -1.799991e-03 1 0.829 0.4982)" class="st9" width="3.8" height="3.5"/>
	
		<rect x="-278.2" y="454.9" transform="matrix(1 1.899991e-03 -1.899991e-03 1 0.8671 0.5257)" class="st9" width="3.8" height="3.5"/>
	
		<rect x="-296.9" y="463.2" transform="matrix(1 2.899964e-03 -2.899964e-03 1 1.347 0.8574)" class="st9" width="3.8" height="3.5"/>
	
		<rect x="-296.9" y="459" transform="matrix(1 2.499976e-03 -2.499976e-03 1 1.1509 0.7389)" class="st9" width="3.8" height="3.5"/>
	
		<rect x="-296.9" y="454.8" transform="matrix(1 2.199985e-03 -2.199985e-03 1 1.0036 0.65)" class="st9" width="3.8" height="3.5"/>
	
		<rect x="-292.2" y="454.3" transform="matrix(-1 -2.399979e-03 2.399979e-03 -1 -572.4081 920.8744)" class="st9" width="13.1" height="13"/>
	
		<rect id="area-5" x="-298.9" y="447.5" transform="matrix(-1 -2.399979e-03 2.399979e-03 -1 -572.3072 920.4742)" class="st10" width="26.6" height="26.2"/>
</g>
<g>
	
		<rect x="-276.7" y="275.6" transform="matrix(-1 -2.599973e-03 2.599973e-03 -1 -550.6238 554.2446)" class="st9" width="3.5" height="3.8"/>
	
		<rect x="-272.6" y="275.6" transform="matrix(-1 -3.099955e-03 3.099955e-03 -1 -542.5627 554.1199)" class="st9" width="3.5" height="3.8"/>
	
		<rect x="-268.4" y="275.6" transform="matrix(-1 -1.799991e-03 1.799991e-03 -1 -533.8011 554.4788)" class="st9" width="3.5" height="3.8"/>
	
		<rect x="-276.8" y="334.8" transform="matrix(-1 -2.799967e-03 2.799967e-03 -1 -551.045 672.5893)" class="st9" width="3.5" height="3.8"/>
	
		<rect x="-272.6" y="334.8" transform="matrix(-1 -2.799967e-03 2.799967e-03 -1 -542.645 672.6011)" class="st9" width="3.5" height="3.8"/>
	
		<rect x="-268.4" y="334.8" transform="matrix(-1 -1.799991e-03 1.799991e-03 -1 -533.9076 672.879)" class="st9" width="3.5" height="3.8"/>
	<polygon class="st9" points="-263.4,333.4 -259.6,333.4 -259.6,329.9 -263.4,329.9 	"/>
	
		<rect x="-263.4" y="325.7" transform="matrix(1 1.899991e-03 -1.899991e-03 1 0.6216 0.4974)" class="st9" width="3.8" height="3.5"/>
	
		<rect x="-263.4" y="321.5" transform="matrix(1 2.099985e-03 -2.099985e-03 1 0.6782 0.5498)" class="st9" width="3.8" height="3.5"/>
	<rect x="-282" y="329.8" transform="matrix(1 2.599973e-03 -2.599973e-03 1 0.861 0.7293)" class="st9" width="3.8" height="3.5"/>
	<rect x="-282" y="325.6" transform="matrix(1 2.299982e-03 -2.299982e-03 1 0.7521 0.645)" class="st9" width="3.8" height="3.5"/>
	
		<rect x="-282" y="321.4" transform="matrix(1 2.499976e-03 -2.499976e-03 1 0.8069 0.7012)" class="st9" width="3.8" height="3.5"/>
	
		<rect x="-277.3" y="320.9" transform="matrix(-1 -2.499976e-03 2.499976e-03 -1 -542.3204 654.0826)" class="st9" width="13.1" height="13"/>
	<polygon id="area-36_1_" class="st10" points="-257.4,340.4 -284,340.1 -284,273.7 -257.5,273.9 	"/>
	<polygon class="st9" points="-263.4,320.2 -259.6,320.2 -259.6,316.7 -263.4,316.7 	"/>
	
		<rect x="-263.4" y="312.5" transform="matrix(1 1.899991e-03 -1.899991e-03 1 0.5966 0.4974)" class="st9" width="3.8" height="3.5"/>
	
		<rect x="-263.4" y="308.3" transform="matrix(1 2.099985e-03 -2.099985e-03 1 0.6505 0.5498)" class="st9" width="3.8" height="3.5"/>
	<rect x="-282" y="316.6" transform="matrix(1 2.299982e-03 -2.299982e-03 1 0.7314 0.645)" class="st9" width="3.8" height="3.5"/>
	
		<rect x="-282" y="312.4" transform="matrix(1 2.899964e-03 -2.899964e-03 1 0.9098 0.8135)" class="st9" width="3.8" height="3.5"/>
	<rect x="-282" y="308.3" transform="matrix(1 2.299982e-03 -2.299982e-03 1 0.7123 0.645)" class="st9" width="3.8" height="3.5"/>
	
		<rect x="-277.3" y="307.7" transform="matrix(-1 -2.499976e-03 2.499976e-03 -1 -542.2874 627.6827)" class="st9" width="13.1" height="13"/>
	<polygon class="st9" points="-263.4,307 -259.6,307 -259.6,303.5 -263.4,303.5 	"/>
	
		<rect x="-263.4" y="299.3" transform="matrix(1 1.699994e-03 -1.699994e-03 1 0.5114 0.4449)" class="st9" width="3.8" height="3.5"/>
	
		<rect x="-263.4" y="295.1" transform="matrix(1 2.099985e-03 -2.099985e-03 1 0.6228 0.5497)" class="st9" width="3.8" height="3.5"/>
	
		<rect x="-282" y="303.4" transform="matrix(1 2.099985e-03 -2.099985e-03 1 0.6402 0.5888)" class="st9" width="3.8" height="3.5"/>
	
		<rect x="-282" y="299.2" transform="matrix(1 2.699970e-03 -2.699970e-03 1 0.8115 0.7573)" class="st9" width="3.8" height="3.5"/>
	
		<rect x="-282" y="295.1" transform="matrix(1 2.599973e-03 -2.599973e-03 1 0.7708 0.7292)" class="st9" width="3.8" height="3.5"/>
	
		<rect x="-277.3" y="294.5" transform="matrix(-1 -2.699970e-03 2.699970e-03 -1 -542.3146 601.2287)" class="st9" width="13.1" height="13"/>
	<polygon class="st9" points="-263.4,293.8 -259.6,293.8 -259.6,290.3 -263.4,290.3 	"/>
	
		<rect x="-263.4" y="286.1" transform="matrix(1 1.599994e-03 -1.599994e-03 1 0.4602 0.4187)" class="st9" width="3.8" height="3.5"/>
	
		<rect x="-263.4" y="281.9" transform="matrix(1 2.099985e-03 -2.099985e-03 1 0.595 0.5497)" class="st9" width="3.8" height="3.5"/>
	
		<rect x="-282" y="290.2" transform="matrix(1 2.199985e-03 -2.199985e-03 1 0.6416 0.6169)" class="st9" width="3.8" height="3.5"/>
	<rect x="-282" y="286" transform="matrix(1 2.599973e-03 -2.599973e-03 1 0.7471 0.7292)" class="st9" width="3.8" height="3.5"/>
	
		<rect x="-282" y="281.9" transform="matrix(1 2.299982e-03 -2.299982e-03 1 0.6516 0.6449)" class="st9" width="3.8" height="3.5"/>
	
		<rect x="-277.3" y="281.3" transform="matrix(-1 -2.599973e-03 2.599973e-03 -1 -542.2501 574.8556)" class="st9" width="13.1" height="13"/>
</g>
<g>
	
		<rect x="-141.2" y="268.5" transform="matrix(2.699970e-03 -1 1 2.699970e-03 -409.5463 130.2287)" class="st9" width="3.5" height="3.8"/>
	
		<rect x="-141.2" y="272.7" transform="matrix(2.499976e-03 -1 1 2.499976e-03 -413.76 134.4687)" class="st9" width="3.5" height="3.8"/>
	
		<rect x="-141.2" y="276.9" transform="matrix(2.099985e-03 -1 1 2.099985e-03 -417.9237 138.8147)" class="st9" width="3.5" height="3.8"/>
	<polygon class="st9" points="-154.8,282.1 -154.8,285.8 -151.3,285.8 -151.3,282.1 	"/>
	
		<rect x="-150.7" y="282.2" transform="matrix(-2.499976e-03 1 -1 -2.499976e-03 134.8579 433.4697)" class="st9" width="3.8" height="3.5"/>
	
		<rect x="-146.5" y="282.3" transform="matrix(-1.799991e-03 1 -1 -1.799991e-03 139.1548 429.1187)" class="st9" width="3.8" height="3.5"/>
	
		<rect x="-154.9" y="263.6" transform="matrix(-2.199985e-03 1 -1 -2.199985e-03 111.9931 418.8566)" class="st9" width="3.8" height="3.5"/>
	
		<rect x="-150.7" y="263.6" transform="matrix(-2.199985e-03 1 -1 -2.199985e-03 116.2038 414.6943)" class="st9" width="3.8" height="3.5"/>
	
		<rect x="-146.5" y="263.6" transform="matrix(-2.299982e-03 1 -1 -2.299982e-03 120.4006 410.5591)" class="st9" width="3.8" height="3.5"/>
	
		<rect x="-155.4" y="268.2" transform="matrix(2.699970e-03 -1 1 2.699970e-03 -423.1646 125.0512)" class="st9" width="13.1" height="13"/>
	<polygon id="area-33" class="st10" points="-175.8,288.1 -175.7,261.5 -135.5,261.5 -135.6,288.1 	"/>
	
		<rect x="-173.2" y="276.9" transform="matrix(-2.099985e-03 1 -1 -2.099985e-03 107.0604 450.8424)" class="st9" width="3.5" height="3.8"/>
	
		<rect x="-173.2" y="272.7" transform="matrix(-3.099955e-03 1 -1 -3.099955e-03 102.5394 446.8879)" class="st9" width="3.5" height="3.8"/>
	
		<rect x="-173.2" y="268.5" transform="matrix(-2.099985e-03 1 -1 -2.099985e-03 98.5383 442.4173)" class="st9" width="3.5" height="3.8"/>
	<polygon class="st9" points="-156.1,267.2 -156.1,263.5 -159.6,263.5 -159.6,267.2 	"/>
	
		<rect x="-163.9" y="263.5" transform="matrix(1.799991e-03 -1 1 1.799991e-03 -426.9942 102.8238)" class="st9" width="3.8" height="3.5"/>
	
		<rect x="-168.1" y="263.5" transform="matrix(1.999988e-03 -1 1 1.999988e-03 -431.126 98.5465)" class="st9" width="3.8" height="3.5"/>
	
		<rect x="-159.8" y="282.2" transform="matrix(2.199985e-03 -1 1 2.199985e-03 -441.5378 125.4612)" class="st9" width="3.8" height="3.5"/>
	
		<rect x="-164" y="282.2" transform="matrix(2.199985e-03 -1 1 2.199985e-03 -445.6944 121.2567)" class="st9" width="3.8" height="3.5"/>
	
		<rect x="-168.2" y="282.2" transform="matrix(2.299982e-03 -1 1 2.299982e-03 -449.8191 117.0416)" class="st9" width="3.8" height="3.5"/>
	
		<rect x="-168.5" y="268.2" transform="matrix(-2.399979e-03 1 -1 -2.399979e-03 112.3257 437.355)" class="st9" width="13.1" height="13"/>
</g>
<g>
	
		<rect x="-321.5" y="268.5" transform="matrix(2.799967e-03 -1 1 2.799967e-03 -589.2673 -50.037)" class="st9" width="3.5" height="3.8"/>
	
		<rect x="-321.5" y="272.7" transform="matrix(2.499976e-03 -1 1 2.499976e-03 -593.5686 -45.7922)" class="st9" width="3.5" height="3.8"/>
	
		<rect x="-321.5" y="276.9" transform="matrix(1.999988e-03 -1 1 1.999988e-03 -597.9307 -41.5154)" class="st9" width="3.5" height="3.8"/>
	<polygon class="st9" points="-335.1,282.1 -335.1,285.8 -331.6,285.8 -331.6,282.1 	"/>
	
		<rect x="-331" y="282.2" transform="matrix(-2.199985e-03 1 -1 -2.199985e-03 -45.8661 613.7475)" class="st9" width="3.8" height="3.5"/>
	
		<rect x="-326.7" y="282.3" transform="matrix(-1.999988e-03 1 -1 -1.999988e-03 -41.4711 609.4282)" class="st9" width="3.8" height="3.5"/>
	
		<rect x="-335.2" y="263.7" transform="matrix(-2.599973e-03 1 -1 -2.599973e-03 -68.7838 599.4119)" class="st9" width="3.8" height="3.5"/>
	
		<rect x="-330.9" y="263.6" transform="matrix(-2.299982e-03 1 -1 -2.299982e-03 -64.4821 594.9698)" class="st9" width="3.8" height="3.5"/>
	
		<rect x="-326.8" y="263.6" transform="matrix(-2.499976e-03 1 -1 -2.499976e-03 -60.315 590.8604)" class="st9" width="3.8" height="3.5"/>
	
		<rect x="-335.7" y="268.1" transform="matrix(2.599973e-03 -1 1 2.599973e-03 -602.8549 -55.2739)" class="st9" width="13.1" height="13"/>
	<polygon id="area-36" class="st10" points="-356.1,288.1 -356,261.5 -315.7,261.5 -315.9,288.1 	"/>
	
		<rect x="-353.4" y="276.8" transform="matrix(-2.399979e-03 1 -1 -2.399979e-03 -73.76 631.0745)" class="st9" width="3.5" height="3.8"/>
	
		<rect x="-353.5" y="272.8" transform="matrix(-2.499976e-03 1 -1 -2.499976e-03 -77.9632 627.0818)" class="st9" width="3.5" height="3.8"/>
	
		<rect x="-353.5" y="268.6" transform="matrix(-2.199985e-03 1 -1 -2.199985e-03 -82.0229 622.7924)" class="st9" width="3.5" height="3.8"/>
	<polygon class="st9" points="-336.4,267.2 -336.4,263.5 -339.9,263.5 -339.9,267.2 	"/>
	
		<rect x="-344.3" y="263.5" transform="matrix(1.999988e-03 -1 1 1.999988e-03 -606.9546 -77.5975)" class="st9" width="3.8" height="3.5"/>
	
		<rect x="-348.4" y="263.5" transform="matrix(2.099985e-03 -1 1 2.099985e-03 -611.0755 -81.8237)" class="st9" width="3.8" height="3.5"/>
	
		<rect x="-340.1" y="282.2" transform="matrix(2.599973e-03 -1 1 2.599973e-03 -621.2617 -54.913)" class="st9" width="3.8" height="3.5"/>
	
		<rect x="-344.2" y="282.2" transform="matrix(2.099985e-03 -1 1 2.099985e-03 -625.5853 -58.9778)" class="st9" width="3.8" height="3.5"/>
	
		<rect x="-348.4" y="282.1" transform="matrix(2.499976e-03 -1 1 2.499976e-03 -629.4988 -63.399)" class="st9" width="3.8" height="3.5"/>
	
		<rect x="-348.8" y="268.1" transform="matrix(-2.499976e-03 1 -1 -2.499976e-03 -68.4983 617.5385)" class="st9" width="13.1" height="13"/>
</g>
<g>
	
		<rect x="-316.3" y="321.8" transform="matrix(2.699970e-03 -1 1 2.699970e-03 -637.394 8.2961)" class="st9" width="3.5" height="3.8"/>
	
		<rect x="-316.3" y="326" transform="matrix(2.799967e-03 -1 1 2.799967e-03 -641.572 12.4329)" class="st9" width="3.5" height="3.8"/>
	
		<rect x="-316.2" y="330.2" transform="matrix(1.899991e-03 -1 1 1.899991e-03 -645.9621 16.9937)" class="st9" width="3.5" height="3.8"/>
	
		<rect x="-330" y="335.5" transform="matrix(-2.299982e-03 1 -1 -2.299982e-03 8.3506 666.1388)" class="st9" width="3.8" height="3.5"/>
	
		<rect x="-325.8" y="335.5" transform="matrix(-2.199985e-03 1 -1 -2.199985e-03 12.6034 661.9475)" class="st9" width="3.8" height="3.5"/>
	
		<rect x="-321.6" y="335.5" transform="matrix(-1.799991e-03 1 -1 -1.799991e-03 17.0481 657.5521)" class="st9" width="3.8" height="3.5"/>
	
		<rect x="-330" y="316.8" transform="matrix(-2.299982e-03 1 -1 -2.299982e-03 -10.3279 647.4351)" class="st9" width="3.8" height="3.5"/>
	
		<rect x="-325.8" y="316.8" transform="matrix(-2.299982e-03 1 -1 -2.299982e-03 -6.0159 643.1735)" class="st9" width="3.8" height="3.5"/>
	
		<rect x="-321.6" y="316.9" transform="matrix(-2.599973e-03 1 -1 -2.599973e-03 -1.8854 639.1056)" class="st9" width="3.8" height="3.5"/>
	
		<rect x="-330.5" y="321.4" transform="matrix(2.499976e-03 -1 1 2.499976e-03 -650.9933 3.0984)" class="st9" width="13.1" height="13"/>
	<polygon id="area-28" class="st10" points="-350.9,341.4 -350.8,314.8 -310.5,314.8 -310.7,341.4 	"/>
	
		<rect x="-348.2" y="330.2" transform="matrix(-2.199985e-03 1 -1 -2.199985e-03 -15.1367 679.3134)" class="st9" width="3.5" height="3.8"/>
	
		<rect x="-348.2" y="325.9" transform="matrix(-2.499976e-03 1 -1 -2.499976e-03 -19.4989 675.0971)" class="st9" width="3.5" height="3.8"/>
	
		<rect x="-348.2" y="321.8" transform="matrix(-1.899991e-03 1 -1 -1.899991e-03 -23.3567 670.7929)" class="st9" width="3.5" height="3.8"/>
	
		<rect x="-334.8" y="316.8" transform="matrix(2.899964e-03 -1 1 2.899964e-03 -650.4958 -15.2331)" class="st9" width="3.8" height="3.5"/>
	
		<rect x="-339" y="316.8" transform="matrix(1.799991e-03 -1 1 1.799991e-03 -655.0255 -19.0671)" class="st9" width="3.8" height="3.5"/>
	
		<rect x="-343.2" y="316.8" transform="matrix(1.999988e-03 -1 1 1.999988e-03 -659.1019 -23.3556)" class="st9" width="3.8" height="3.5"/>
	
		<rect x="-334.9" y="335.5" transform="matrix(2.599973e-03 -1 1 2.599973e-03 -669.3588 3.4065)" class="st9" width="3.8" height="3.5"/>
	
		<rect x="-339.1" y="335.5" transform="matrix(2.099985e-03 -1 1 2.099985e-03 -673.6787 -0.6369)" class="st9" width="3.8" height="3.5"/>
	
		<rect x="-343.2" y="335.5" transform="matrix(2.299982e-03 -1 1 2.299982e-03 -677.7731 -4.8883)" class="st9" width="3.8" height="3.5"/>
	
		<rect x="-343.6" y="321.5" transform="matrix(-2.499976e-03 1 -1 -2.499976e-03 -9.9147 665.8605)" class="st9" width="13.1" height="13"/>
</g>
<g>
	
		<rect x="-169.5" y="321.9" transform="matrix(2.399979e-03 -1 1 2.399979e-03 -491.1795 155.2595)" class="st9" width="3.5" height="3.8"/>
	
		<rect x="-169.6" y="326.1" transform="matrix(3.099955e-03 -1 1 3.099955e-03 -495.2745 159.1758)" class="st9" width="3.5" height="3.8"/>
	
		<rect x="-169.5" y="330.3" transform="matrix(1.899991e-03 -1 1 1.899991e-03 -499.6601 163.7742)" class="st9" width="3.5" height="3.8"/>
	
		<rect x="-183.3" y="335.5" transform="matrix(-2.299982e-03 1 -1 -2.299982e-03 155.4426 519.3815)" class="st9" width="3.8" height="3.5"/>
	
		<rect x="-179.1" y="335.5" transform="matrix(-2.299982e-03 1 -1 -2.299982e-03 159.651 515.2203)" class="st9" width="3.8" height="3.5"/>
	
		<rect x="-174.9" y="335.5" transform="matrix(-1.899991e-03 1 -1 -1.899991e-03 163.9358 510.925)" class="st9" width="3.8" height="3.5"/>
	
		<rect x="-183.3" y="316.9" transform="matrix(-2.299982e-03 1 -1 -2.299982e-03 136.8601 500.7816)" class="st9" width="3.8" height="3.5"/>
	
		<rect x="-179.1" y="316.9" transform="matrix(-2.299982e-03 1 -1 -2.299982e-03 141.0721 496.616)" class="st9" width="3.8" height="3.5"/>
	
		<rect x="-174.9" y="317" transform="matrix(-2.299982e-03 1 -1 -2.299982e-03 145.2871 492.4565)" class="st9" width="3.8" height="3.5"/>
	
		<rect x="-183.7" y="321.5" transform="matrix(2.599973e-03 -1 1 2.599973e-03 -504.6681 149.9269)" class="st9" width="13.1" height="13"/>
	<polygon id="area-25" class="st10" points="-204.2,341.4 -204,314.8 -163.8,314.8 -163.9,341.4 	"/>
	
		<rect x="-201.6" y="330.2" transform="matrix(-2.499976e-03 1 -1 -2.499976e-03 131.7899 532.7546)" class="st9" width="3.5" height="3.8"/>
	
		<rect x="-201.5" y="326" transform="matrix(-2.499976e-03 1 -1 -2.499976e-03 127.6262 528.5377)" class="st9" width="3.5" height="3.8"/>
	
		<rect x="-201.5" y="321.8" transform="matrix(-1.899991e-03 1 -1 -1.899991e-03 123.5717 524.1398)" class="st9" width="3.5" height="3.8"/>
	<polygon class="st9" points="-184.5,320.5 -184.5,316.8 -188,316.8 -188,320.5 	"/>
	
		<rect x="-192.3" y="316.8" transform="matrix(2.299982e-03 -1 1 2.299982e-03 -508.5145 127.4597)" class="st9" width="3.8" height="3.5"/>
	
		<rect x="-196.5" y="316.9" transform="matrix(1.899991e-03 -1 1 1.899991e-03 -512.8459 123.4838)" class="st9" width="3.8" height="3.5"/>
	
		<rect x="-188.2" y="335.4" transform="matrix(2.299982e-03 -1 1 2.299982e-03 -523.0242 150.1004)" class="st9" width="3.8" height="3.5"/>
	
		<rect x="-192.4" y="335.5" transform="matrix(2.299982e-03 -1 1 2.299982e-03 -527.2784 146.0003)" class="st9" width="3.8" height="3.5"/>
	
		<rect x="-196.6" y="335.5" transform="matrix(2.299982e-03 -1 1 2.299982e-03 -531.4319 141.794)" class="st9" width="3.8" height="3.5"/>
	
		<rect x="-196.9" y="321.4" transform="matrix(-2.599973e-03 1 -1 -2.599973e-03 137.0033 519.1173)" class="st9" width="13.1" height="13"/>
</g>
<g>
	
		<rect x="-261.9" y="387.9" transform="matrix(2.499976e-03 -1 1 2.499976e-03 -649.2584 128.7329)" class="st9" width="3.5" height="3.8"/>
	
		<rect x="-261.9" y="392.1" transform="matrix(2.799967e-03 -1 1 2.799967e-03 -653.3824 132.7419)" class="st9" width="3.5" height="3.8"/>
	
		<rect x="-261.9" y="396.3" transform="matrix(1.899991e-03 -1 1 1.899991e-03 -657.8282 137.2912)" class="st9" width="3.5" height="3.8"/>
	
		<rect x="-275.6" y="401.5" transform="matrix(-2.299982e-03 1 -1 -2.299982e-03 128.8761 677.8464)" class="st9" width="3.8" height="3.5"/>
	
		<rect x="-271.4" y="401.5" transform="matrix(-2.299982e-03 1 -1 -2.299982e-03 133.0858 673.6855)" class="st9" width="3.8" height="3.5"/>
	
		<rect x="-267.2" y="401.5" transform="matrix(-1.899991e-03 1 -1 -1.899991e-03 137.4079 669.3648)" class="st9" width="3.8" height="3.5"/>
	
		<rect x="-275.6" y="382.9" transform="matrix(-2.299982e-03 1 -1 -2.299982e-03 110.2972 659.248)" class="st9" width="3.8" height="3.5"/>
	
		<rect x="-271.4" y="382.8" transform="matrix(-2.299982e-03 1 -1 -2.299982e-03 114.408 654.984)" class="st9" width="3.8" height="3.5"/>
	
		<rect x="-267.1" y="382.9" transform="matrix(-2.599973e-03 1 -1 -2.599973e-03 118.6814 650.8426)" class="st9" width="3.8" height="3.5"/>
	
		<rect x="-276.1" y="387.3" transform="matrix(2.599973e-03 -1 1 2.599973e-03 -662.6536 123.2773)" class="st9" width="13.1" height="13"/>
	<polygon id="area-16" class="st10" points="-296.5,407.4 -296.4,380.8 -256.1,380.8 -256.3,407.4 	"/>
	
		<rect x="-293.8" y="396.2" transform="matrix(-2.399979e-03 1 -1 -2.399979e-03 105.3585 691.1047)" class="st9" width="3.5" height="3.8"/>
	
		<rect x="-293.8" y="392" transform="matrix(-2.799967e-03 1 -1 -2.799967e-03 101.0652 687.0424)" class="st9" width="3.5" height="3.8"/>
	
		<rect x="-293.8" y="387.8" transform="matrix(-2.099985e-03 1 -1 -2.099985e-03 97.1182 682.5651)" class="st9" width="3.5" height="3.8"/>
	<polygon class="st9" points="-276.8,386.5 -276.8,382.8 -280.3,382.7 -280.3,386.5 	"/>
	
		<rect x="-284.6" y="382.8" transform="matrix(1.899991e-03 -1 1 1.899991e-03 -666.7568 101.1061)" class="st9" width="3.8" height="3.5"/>
	
		<rect x="-288.7" y="382.8" transform="matrix(1.799991e-03 -1 1 1.799991e-03 -670.8355 97.0231)" class="st9" width="3.8" height="3.5"/>
	
		<rect x="-280.4" y="401.5" transform="matrix(2.299982e-03 -1 1 2.299982e-03 -681.1539 123.7907)" class="st9" width="3.8" height="3.5"/>
	
		<rect x="-284.6" y="401.4" transform="matrix(2.299982e-03 -1 1 2.299982e-03 -685.2109 119.4875)" class="st9" width="3.8" height="3.5"/>
	
		<rect x="-288.8" y="401.5" transform="matrix(2.299982e-03 -1 1 2.299982e-03 -689.4589 115.3838)" class="st9" width="3.8" height="3.5"/>
	
		<rect x="-289.3" y="387.5" transform="matrix(-2.499976e-03 1 -1 -2.499976e-03 110.5223 677.6821)" class="st9" width="13.1" height="13"/>
</g>
<g>
	
		<rect x="-169.7" y="387.8" transform="matrix(2.499976e-03 -1 1 2.499976e-03 -557.2115 220.8104)" class="st9" width="3.5" height="3.8"/>
	
		<rect x="-169.7" y="392.1" transform="matrix(2.499976e-03 -1 1 2.499976e-03 -561.5198 225.065)" class="st9" width="3.5" height="3.8"/>
	
		<rect x="-169.7" y="396.3" transform="matrix(2.699970e-03 -1 1 2.699970e-03 -565.6921 229.0841)" class="st9" width="3.5" height="3.8"/>
	
		<rect x="-183.4" y="401.5" transform="matrix(-2.199985e-03 1 -1 -2.199985e-03 221.2944 585.6406)" class="st9" width="3.8" height="3.5"/>
	
		<rect x="-179.3" y="401.5" transform="matrix(-2.299982e-03 1 -1 -2.299982e-03 225.461 581.5215)" class="st9" width="3.8" height="3.5"/>
	
		<rect x="-175.1" y="401.5" transform="matrix(-1.799991e-03 1 -1 -1.799991e-03 229.7924 577.1567)" class="st9" width="3.8" height="3.5"/>
	
		<rect x="-183.5" y="382.9" transform="matrix(-2.299982e-03 1 -1 -2.299982e-03 202.6755 567.0809)" class="st9" width="3.8" height="3.5"/>
	
		<rect x="-179.3" y="382.9" transform="matrix(-2.699970e-03 1 -1 -2.699970e-03 206.8163 563.0694)" class="st9" width="3.8" height="3.5"/>
	
		<rect x="-175.1" y="382.9" transform="matrix(-2.299982e-03 1 -1 -2.299982e-03 211.1009 558.7555)" class="st9" width="3.8" height="3.5"/>
	
		<rect x="-183.9" y="387.5" transform="matrix(2.499976e-03 -1 1 2.499976e-03 -570.8416 215.6298)" class="st9" width="13.1" height="13"/>
	<polygon id="area-15" class="st10" points="-204.4,407.4 -204.2,380.8 -164,380.8 -164.1,407.4 	"/>
	
		<rect x="-201.7" y="396.2" transform="matrix(-2.499976e-03 1 -1 -2.499976e-03 197.6071 599.0657)" class="st9" width="3.5" height="3.8"/>
	
		<rect x="-201.7" y="392" transform="matrix(-2.499976e-03 1 -1 -2.499976e-03 193.4432 594.8546)" class="st9" width="3.5" height="3.8"/>
	
		<rect x="-201.7" y="387.8" transform="matrix(-1.999988e-03 1 -1 -1.999988e-03 189.4184 590.4485)" class="st9" width="3.5" height="3.8"/>
	<polygon class="st9" points="-184.7,386.5 -184.6,382.8 -188.1,382.7 -188.1,386.5 	"/>
	
		<rect x="-192.5" y="382.9" transform="matrix(1.799991e-03 -1 1 1.799991e-03 -574.8707 193.4022)" class="st9" width="3.8" height="3.5"/>
	
		<rect x="-196.6" y="382.9" transform="matrix(1.899991e-03 -1 1 1.899991e-03 -579.0045 189.1823)" class="st9" width="3.8" height="3.5"/>
	
		<rect x="-188.4" y="401.5" transform="matrix(2.299982e-03 -1 1 2.299982e-03 -589.285 215.8535)" class="st9" width="3.8" height="3.5"/>
	
		<rect x="-192.5" y="401.5" transform="matrix(2.299982e-03 -1 1 2.299982e-03 -593.44 211.6701)" class="st9" width="3.8" height="3.5"/>
	
		<rect x="-196.7" y="401.5" transform="matrix(2.299982e-03 -1 1 2.299982e-03 -597.5903 207.4627)" class="st9" width="3.8" height="3.5"/>
	
		<rect x="-197.1" y="387.4" transform="matrix(-2.499976e-03 1 -1 -2.499976e-03 202.7985 585.4083)" class="st9" width="13.1" height="13"/>
</g>
<rect x="-248.1" y="387.2" class="st2" width="37.2" height="12.6"/>
<g>
	
		<rect x="-207.1" y="274.4" transform="matrix(-0.7073 -0.7069 0.7069 -0.7073 -545.9772 326.1272)" class="st5" width="3.3" height="3.3"/>
	
		<rect x="-214.7" y="282.1" transform="matrix(-0.7068 -0.7074 0.7074 -0.7068 -564.3165 333.5338)" class="st5" width="3.3" height="3.3"/>
	
		<rect x="-207.2" y="282.1" transform="matrix(-0.7069 -0.7073 0.7073 -0.7069 -551.5632 338.9052)" class="st5" width="3.3" height="3.3"/>
	<circle class="st5" cx="-209.3" cy="280" r="3.1"/>
</g>
<g>
	
		<rect x="-247.8" y="282.1" transform="matrix(0.707 -0.7072 0.7072 0.707 -272.7631 -90.9385)" class="st5" width="3.3" height="3.3"/>
	
		<rect x="-255.3" y="274.4" transform="matrix(0.7069 -0.7073 0.7073 0.7069 -269.5901 -98.4823)" class="st5" width="3.3" height="3.3"/>
	
		<rect x="-255.3" y="281.9" transform="matrix(0.7072 -0.707 0.707 0.7072 -274.7306 -96.3505)" class="st5" width="3.3" height="3.3"/>
	<circle class="st5" cx="-250" cy="279.8" r="3.1"/>
</g>
<g>
	
		<rect x="-247.4" y="274.2" transform="matrix(0.7073 0.707 -0.707 0.7073 123.05 254.4678)" class="st5" width="3.3" height="3.3"/>
	
		<rect x="-247.7" y="267.1" transform="matrix(0.7069 0.7073 -0.7073 0.7069 117.9351 252.8038)" class="st5" width="3.3" height="3.3"/>
	
		<rect x="-255.2" y="267.1" transform="matrix(0.7069 0.7073 -0.7073 0.7069 115.7954 258.1084)" class="st5" width="3.3" height="3.3"/>
	<circle class="st5" cx="-249.8" cy="272.4" r="3.1"/>
</g>
<g>
	
		<rect x="-214.6" y="267" transform="matrix(-0.7073 0.7069 -0.7069 -0.7073 -173.6388 609.2797)" class="st5" width="3.3" height="3.3"/>
	
		<rect x="-215.4" y="273.9" transform="matrix(-0.7073 0.707 -0.707 -0.7073 -170.1241 621.6367)" class="st5" width="3.3" height="3.3"/>
	
		<rect x="-207.1" y="267.2" transform="matrix(-0.7072 0.707 -0.707 -0.7072 -160.679 604.2238)" class="st5" width="3.3" height="3.3"/>
	<circle class="st5" cx="-209.1" cy="272.6" r="3.1"/>
</g>
<g>
	
		<rect x="-210.8" y="256.8" transform="matrix(-0.998 6.290372e-02 -6.290372e-02 -0.998 -401.6225 529.4959)" class="st5" width="3.3" height="3.3"/>
	
		<rect x="-215.9" y="261.4" transform="matrix(-0.998 6.250838e-02 -6.250838e-02 -0.998 -411.6224 538.9072)" class="st5" width="3.3" height="3.3"/>
	
		<rect x="-205.3" y="261.9" transform="matrix(-0.998 6.250838e-02 -6.250838e-02 -0.998 -390.4105 539.2537)" class="st5" width="3.3" height="3.3"/>
	<circle class="st5" cx="-208.8" cy="263.9" r="3.1"/>
</g>
<g>
	
		<rect x="-253.1" y="256.8" transform="matrix(-0.998 6.290372e-02 -6.290372e-02 -0.998 -486.1384 532.1489)" class="st5" width="3.3" height="3.3"/>
	
		<rect x="-258.2" y="261.4" transform="matrix(-0.998 6.250838e-02 -6.250838e-02 -0.998 -496.1356 541.556)" class="st5" width="3.3" height="3.3"/>
	
		<rect x="-247.5" y="261.9" transform="matrix(-0.998 6.250838e-02 -6.250838e-02 -0.998 -474.7246 541.8839)" class="st5" width="3.3" height="3.3"/>
	<circle class="st5" cx="-251.1" cy="263.9" r="3.1"/>
</g>
<rect x="-243.7" y="260.6" class="st11" width="26.8" height="26.8"/>
<rect x="-248.8" y="234" class="st12" width="35.8" height="26.5"/>
<rect x="-159" y="455.8" class="st13" width="14.4" height="13.2"/>
<text transform="matrix(1 0 0 1 -154.5838 463.4568)" class="st1 st14 st15">1</text>
<rect x="-186.1" y="455.8" class="st13" width="14.4" height="13.2"/>
<text transform="matrix(1 0 0 1 -181.6385 463.4568)" class="st1 st14 st15">2</text>
<rect x="-213.1" y="455.8" class="st13" width="14.4" height="13.2"/>
<text transform="matrix(1 0 0 1 -208.6947 463.4568)" class="st1 st14 st15">3</text>
<rect x="-264.6" y="455.8" class="st13" width="14.4" height="13.2"/>
<text transform="matrix(1 0 0 1 -260.1102 463.4568)" class="st1 st14 st15">4</text>
<rect x="-293.4" y="455.8" class="st13" width="14.4" height="13.2"/>
<text transform="matrix(1 0 0 1 -288.9627 463.4568)" class="st1 st14 st15">5</text>
<rect x="-321.1" y="456.4" class="st13" width="14.4" height="13.2"/>
<text transform="matrix(1 0 0 1 -316.6288 464.0329)" class="st1 st14 st15">6</text>
<rect x="-346.7" y="456.7" class="st13" width="14.4" height="13.2"/>
<text transform="matrix(1 0 0 1 -342.244 464.2851)" class="st1 st14 st15">7</text>
<rect x="-164.8" y="430.2" class="st13" width="14.4" height="13.2"/>
<text transform="matrix(1 0 0 1 -160.3373 437.8053)" class="st1 st14 st15">8</text>
<rect x="-206.8" y="423.6" class="st13" width="14.4" height="13.2"/>
<text transform="matrix(1 0 0 1 -202.3602 431.1842)" class="st1 st14 st15">9</text>
<rect x="-270.1" y="422.4" class="st13" width="14.4" height="13.2"/>
<text transform="matrix(1 0 0 1 -268.4466 430.0335)" class="st1 st14 st15">10</text>
<rect x="-313.3" y="429" class="st13" width="14.4" height="13.2"/>
<text transform="matrix(1 0 0 1 -311.6214 436.654)" class="st1 st14 st15">11</text>
<rect x="-348.7" y="429.6" class="st13" width="14.4" height="13.2"/>
<text transform="matrix(1 0 0 1 -347.0238 437.2289)" class="st1 st14 st15">12</text>
<rect x="-159" y="402.8" class="st13" width="14.4" height="13.2"/>
<text transform="matrix(1 0 0 1 -157.346 410.4613)" class="st1 st14 st15">13</text>
<rect x="-158.4" y="374.9" class="st13" width="14.4" height="13.2"/>
<text transform="matrix(1 0 0 1 -156.7699 382.5417)" class="st1 st14 st15">18</text>
<rect x="-166.8" y="349.6" class="st13" width="14.4" height="13.2"/>
<text transform="matrix(1 0 0 1 -165.1166 357.2127)" class="st1 st14 st15">19</text>
<rect x="-313.3" y="349.6" class="st13" width="14.4" height="13.2"/>
<text transform="matrix(1 0 0 1 -311.6214 357.2127)" class="st1 st14 st15">22</text>
<rect x="-349.6" y="350.2" class="st13" width="14.4" height="13.2"/>
<text transform="matrix(1 0 0 1 -347.8871 357.7887)" class="st1 st14 st15">23</text>
<rect x="-157.3" y="324.8" class="st13" width="14.4" height="13.2"/>
<text transform="matrix(1 0 0 1 -155.617 332.4596)" class="st1 st14 st15">24</text>
<rect x="-197.6" y="323.7" class="st13" width="14.4" height="13.2"/>
<text transform="matrix(1 0 0 1 -195.9144 331.3083)" class="st1 st14 st15">25</text>
<rect x="-277.6" y="323.7" class="st13" width="14.4" height="13.2"/>
<text transform="matrix(1 0 0 1 -275.93 331.3083)" class="st1 st14 st15">26</text>
<rect x="-305.2" y="323.7" class="st13" width="14.4" height="13.2"/>
<text transform="matrix(1 0 0 1 -303.5619 331.3083)" class="st1 st14 st15">27</text>
<rect x="-344.7" y="323.7" class="st13" width="14.4" height="13.2"/>
<text transform="matrix(1 0 0 1 -342.994 331.3083)" class="st1 st14 st15">28</text>
<rect x="-158.2" y="298.3" class="st13" width="14.4" height="13.2"/>
<text transform="matrix(1 0 0 1 -156.4823 305.9792)" class="st1 st14 st15">29</text>
<rect x="-189.7" y="296.9" class="st13" width="14.4" height="13.2"/>
<text transform="matrix(1 0 0 1 -188.0062 304.5398)" class="st1 st14 st15">30</text>
<rect x="-313.9" y="297.5" class="st13" width="14.4" height="13.2"/>
<text transform="matrix(1 0 0 1 -312.1976 305.1158)" class="st1 st14 st15">31</text>
<rect x="-351.3" y="296.9" class="st13" width="14.4" height="13.2"/>
<text transform="matrix(1 0 0 1 -349.6156 304.5398)" class="st1 st14 st15">32</text>
<rect x="-169.7" y="270.4" class="st13" width="14.4" height="13.2"/>
<text transform="matrix(1 0 0 1 -167.9959 278.0602)" class="st1 st14 st15">33</text>
<rect x="-196.7" y="270.7" class="st13" width="14.4" height="13.2"/>
<text transform="matrix(1 0 0 1 -195.0506 278.3476)" class="st1 st14 st15">34</text>
<rect x="-305.5" y="270.4" class="st13" width="14.4" height="13.2"/>
<text transform="matrix(1 0 0 1 -303.8509 278.0602)" class="st1 st14 st15">35</text>
<rect x="-351" y="269.6" class="st13" width="14.4" height="13.2"/>
<text transform="matrix(1 0 0 1 -349.3275 277.1961)" class="st1 st14 st15">36</text>
<rect x="-208" y="356.5" class="st13" width="14.4" height="13.2"/>
<text transform="matrix(1 0 0 1 -206.2748 364.1209)" class="st1 st14 st15">20</text>
<rect x="-271.3" y="356.5" class="st13" width="14.4" height="13.2"/>
<text transform="matrix(1 0 0 1 -269.598 364.1209)" class="st1 st14 st15">21</text>
<rect x="-197.9" y="389.3" class="st13" width="14.4" height="13.2"/>
<text transform="matrix(1 0 0 1 -196.2015 396.9339)" class="st1 st14 st15">15</text>
<rect x="-291.4" y="389.6" class="st13" width="14.4" height="13.2"/>
<text transform="matrix(1 0 0 1 -289.7464 397.2223)" class="st1 st14 st15">16</text>
<rect x="-317.9" y="375.5" class="st13" width="14.4" height="13.2"/>
<text transform="matrix(1 0 0 1 -316.2279 383.1178)" class="st1 st14 st15">17</text>
<rect x="-1066.3" y="841.4" class="st16" width="14.4" height="13.2"/>
<text transform="matrix(1 0 0 1 -316.5145 410.1732)" class="st1 st14 st15">14</text>
<rect x="-1104.4" y="699.5" class="st17" width="220.9" height="214.3"/>
</svg>
